<svg xmlns="http://www.w3.org/2000/svg" xmlns:xlink="http://www.w3.org/1999/xlink" width="500" zoomAndPan="magnify" viewBox="0 0 375 374.999991" height="500" preserveAspectRatio="xMidYMid meet" version="1.0"><defs><g/><clipPath id="8fd91c69ef"><path d="M 72.742188 72.035156 L 302.242188 72.035156 L 302.242188 269 L 72.742188 269 Z M 72.742188 72.035156 " clip-rule="nonzero"/></clipPath></defs><rect x="-37.5" width="450" fill="#ffffff" y="-37.499999" height="449.999989" fill-opacity="1"/><rect x="-37.5" width="450" fill="#ffffff" y="-37.499999" height="449.999989" fill-opacity="1"/><rect x="-37.5" width="450" fill="#464646" y="-37.499999" height="449.999989" fill-opacity="1"/><path fill="#000000" d="M 187.492188 302.996094 C 139.601562 302.996094 100.777344 264.164062 100.777344 216.261719 C 100.777344 192.195312 110.578125 170.425781 126.402344 154.714844 C 119.335938 165.882812 115.230469 179.109375 115.230469 193.300781 C 115.230469 233.21875 147.585938 265.578125 187.492188 265.578125 C 227.398438 265.578125 259.753906 233.21875 259.753906 193.300781 C 259.753906 179.109375 255.648438 165.882812 248.582031 154.714844 C 264.402344 170.425781 274.207031 192.195312 274.207031 216.261719 C 274.207031 264.164062 235.382812 302.996094 187.492188 302.996094 " fill-opacity="1" fill-rule="nonzero"/><g clip-path="url(#8fd91c69ef)"><path fill="#f14902" d="M 187.492188 72.003906 C 124.144531 72.003906 72.792969 123.367188 72.792969 186.730469 C 72.792969 218.5625 85.757812 247.359375 106.6875 268.140625 C 97.339844 253.371094 91.910156 235.875 91.910156 217.101562 C 91.910156 164.300781 134.703125 121.496094 187.492188 121.496094 C 240.28125 121.496094 283.074219 164.300781 283.074219 217.101562 C 283.074219 235.875 277.644531 253.371094 268.296875 268.140625 C 289.226562 247.359375 302.191406 218.5625 302.191406 186.730469 C 302.191406 123.367188 250.839844 72.003906 187.492188 72.003906 " fill-opacity="1" fill-rule="nonzero"/></g><g fill="#f6e7d8" fill-opacity="1"><g transform="translate(127.424298, 119.39469)"><g><path d="M -1.5625 -5.875 L 1.75 -1.265625 L 0.53125 -0.390625 L -3.71875 -6.3125 L -1.890625 -7.625 L 2.546875 -3.6875 L 0.21875 -9.125 L 2.0625 -10.453125 L 6.3125 -4.53125 L 5.09375 -3.65625 L 1.78125 -8.265625 L 4.03125 -2.90625 L 2.8125 -2.03125 Z M -1.5625 -5.875 "/></g></g></g><g fill="#f6e7d8" fill-opacity="1"><g transform="translate(137.12087, 112.714313)"><g><path d="M 3.65625 -3.71875 L 1.28125 -2.390625 L 1.5625 -0.859375 L 0.234375 -0.125 L -1.046875 -7.765625 L 0.390625 -8.5625 L 6.140625 -3.421875 L 4.8125 -2.671875 Z M 2.6875 -4.609375 L 0.46875 -6.65625 L 1.03125 -3.6875 Z M 2.6875 -4.609375 "/></g></g></g><g fill="#f6e7d8" fill-opacity="1"><g transform="translate(146.571214, 107.691327)"><g><path d="M 1.171875 -7.0625 L 3.546875 -1.515625 L 2.15625 -0.921875 L -0.21875 -6.46875 L -2.25 -5.609375 L -2.75 -6.765625 L 2.625 -9.0625 L 3.125 -7.90625 Z M 1.171875 -7.0625 "/></g></g></g><g fill="#f6e7d8" fill-opacity="1"><g transform="translate(155.450276, 104.058417)"><g><path d="M 3.734375 -6.203125 C 3.679688 -6.285156 3.632812 -6.347656 3.59375 -6.390625 C 3.5625 -6.441406 3.503906 -6.519531 3.421875 -6.625 C 3.335938 -6.726562 3.25 -6.8125 3.15625 -6.875 C 3.0625 -6.9375 2.945312 -6.988281 2.8125 -7.03125 C 2.6875 -7.070312 2.539062 -7.085938 2.375 -7.078125 C 2.207031 -7.078125 2.03125 -7.050781 1.84375 -7 C 1.28125 -6.820312 0.90625 -6.460938 0.71875 -5.921875 C 0.53125 -5.390625 0.554688 -4.742188 0.796875 -3.984375 C 1.023438 -3.210938 1.359375 -2.660156 1.796875 -2.328125 C 2.242188 -2.003906 2.742188 -1.929688 3.296875 -2.109375 C 3.742188 -2.242188 4.066406 -2.472656 4.265625 -2.796875 C 4.460938 -3.128906 4.515625 -3.523438 4.421875 -3.984375 L 5.8125 -4.421875 C 6.007812 -3.597656 5.910156 -2.867188 5.515625 -2.234375 C 5.117188 -1.597656 4.488281 -1.148438 3.625 -0.890625 C 2.664062 -0.585938 1.800781 -0.675781 1.03125 -1.15625 C 0.257812 -1.632812 -0.296875 -2.429688 -0.640625 -3.546875 C -0.984375 -4.671875 -0.96875 -5.648438 -0.59375 -6.484375 C -0.226562 -7.316406 0.441406 -7.890625 1.421875 -8.203125 C 2.242188 -8.453125 2.988281 -8.441406 3.65625 -8.171875 C 4.320312 -7.898438 4.800781 -7.382812 5.09375 -6.625 Z M 3.734375 -6.203125 "/></g></g></g><g fill="#f6e7d8" fill-opacity="1"><g transform="translate(165.71321, 101.076814)"><g><path d="M 4.34375 -4.21875 L 1.5 -3.65625 L 2.125 -0.40625 L 0.65625 -0.125 L -0.734375 -7.28125 L 0.734375 -7.5625 L 1.265625 -4.890625 L 4.109375 -5.453125 L 3.578125 -8.125 L 5.0625 -8.40625 L 6.453125 -1.25 L 4.96875 -0.96875 Z M 4.34375 -4.21875 "/></g></g></g><g fill="#f6e7d8" fill-opacity="1"><g transform="translate(176.311076, 99.281093)"><g/></g></g><g fill="#f6e7d8" fill-opacity="1"><g transform="translate(182.600217, 98.683455)"><g><path d="M 5.3125 -4.921875 C 5.289062 -5.003906 5.269531 -5.078125 5.25 -5.140625 C 5.226562 -5.203125 5.191406 -5.289062 5.140625 -5.40625 C 5.085938 -5.519531 5.023438 -5.617188 4.953125 -5.703125 C 4.878906 -5.785156 4.785156 -5.867188 4.671875 -5.953125 C 4.566406 -6.035156 4.429688 -6.097656 4.265625 -6.140625 C 4.097656 -6.179688 3.914062 -6.203125 3.71875 -6.203125 C 3.125 -6.191406 2.664062 -5.953125 2.34375 -5.484375 C 2.019531 -5.023438 1.863281 -4.394531 1.875 -3.59375 C 1.882812 -2.789062 2.054688 -2.171875 2.390625 -1.734375 C 2.722656 -1.296875 3.179688 -1.082031 3.765625 -1.09375 C 4.234375 -1.101562 4.601562 -1.238281 4.875 -1.5 C 5.15625 -1.757812 5.3125 -2.125 5.34375 -2.59375 L 6.8125 -2.609375 C 6.78125 -1.773438 6.484375 -1.101562 5.921875 -0.59375 C 5.367188 -0.09375 4.640625 0.160156 3.734375 0.171875 C 2.722656 0.191406 1.914062 -0.132812 1.3125 -0.8125 C 0.707031 -1.488281 0.394531 -2.410156 0.375 -3.578125 C 0.351562 -4.753906 0.632812 -5.691406 1.21875 -6.390625 C 1.8125 -7.085938 2.625 -7.445312 3.65625 -7.46875 C 4.519531 -7.476562 5.234375 -7.257812 5.796875 -6.8125 C 6.359375 -6.363281 6.675781 -5.738281 6.75 -4.9375 Z M 5.3125 -4.921875 "/></g></g></g><g fill="#f6e7d8" fill-opacity="1"><g transform="translate(193.287465, 98.695831)"><g><path d="M 5.140625 -1 L 2.40625 -1.25 L 1.78125 0.171875 L 0.265625 0.03125 L 3.515625 -7 L 5.15625 -6.84375 L 7 0.65625 L 5.46875 0.515625 Z M 4.828125 -2.28125 L 4.15625 -5.203125 L 2.9375 -2.453125 Z M 4.828125 -2.28125 "/></g></g></g><g fill="#f6e7d8" fill-opacity="1"><g transform="translate(203.909601, 99.87405)"><g><path d="M 5.09375 -0.234375 C 5.132812 -0.429688 5.164062 -0.585938 5.1875 -0.703125 C 5.207031 -0.816406 5.226562 -0.910156 5.25 -0.984375 C 5.3125 -1.296875 5.28125 -1.53125 5.15625 -1.6875 C 5.039062 -1.84375 4.828125 -1.953125 4.515625 -2.015625 L 2.828125 -2.375 L 2.25 0.453125 L 0.78125 0.15625 L 2.25 -7 L 6.078125 -6.21875 C 6.367188 -6.15625 6.617188 -6.054688 6.828125 -5.921875 C 7.035156 -5.785156 7.195312 -5.632812 7.3125 -5.46875 C 7.425781 -5.3125 7.507812 -5.132812 7.5625 -4.9375 C 7.613281 -4.75 7.640625 -4.566406 7.640625 -4.390625 C 7.648438 -4.222656 7.632812 -4.050781 7.59375 -3.875 C 7.414062 -3.007812 6.894531 -2.5 6.03125 -2.34375 C 6.15625 -2.28125 6.25 -2.222656 6.3125 -2.171875 C 6.375 -2.117188 6.4375 -2.050781 6.5 -1.96875 C 6.570312 -1.894531 6.625 -1.832031 6.65625 -1.78125 C 6.6875 -1.726562 6.710938 -1.644531 6.734375 -1.53125 C 6.753906 -1.425781 6.757812 -1.328125 6.75 -1.234375 C 6.75 -1.140625 6.738281 -0.992188 6.71875 -0.796875 C 6.695312 -0.609375 6.664062 -0.425781 6.625 -0.25 C 6.59375 -0.0820312 6.550781 0.148438 6.5 0.453125 C 6.46875 0.609375 6.460938 0.734375 6.484375 0.828125 C 6.515625 0.921875 6.578125 1.007812 6.671875 1.09375 L 6.625 1.359375 L 5.046875 1.03125 C 4.984375 0.84375 4.957031 0.664062 4.96875 0.5 C 4.976562 0.34375 5.019531 0.0976562 5.09375 -0.234375 Z M 6.09375 -3.96875 C 6.125 -4.164062 6.128906 -4.328125 6.109375 -4.453125 C 6.085938 -4.578125 6.035156 -4.679688 5.953125 -4.765625 C 5.867188 -4.847656 5.769531 -4.910156 5.65625 -4.953125 C 5.539062 -5.003906 5.398438 -5.046875 5.234375 -5.078125 L 3.453125 -5.453125 L 3.078125 -3.609375 L 4.859375 -3.234375 C 5.015625 -3.203125 5.15625 -3.179688 5.28125 -3.171875 C 5.40625 -3.171875 5.519531 -3.191406 5.625 -3.234375 C 5.738281 -3.285156 5.832031 -3.367188 5.90625 -3.484375 C 5.988281 -3.609375 6.050781 -3.769531 6.09375 -3.96875 Z M 6.09375 -3.96875 "/></g></g></g><g fill="#f6e7d8" fill-opacity="1"><g transform="translate(214.339781, 102.204055)"><g><path d="M 5.09375 0.328125 C 5.144531 0.140625 5.1875 -0.00390625 5.21875 -0.109375 C 5.257812 -0.222656 5.296875 -0.320312 5.328125 -0.40625 C 5.421875 -0.695312 5.414062 -0.929688 5.3125 -1.109375 C 5.21875 -1.285156 5.019531 -1.421875 4.71875 -1.515625 L 3.078125 -2.046875 L 2.1875 0.703125 L 0.765625 0.25 L 3 -6.703125 L 6.71875 -5.515625 C 7 -5.421875 7.238281 -5.289062 7.4375 -5.125 C 7.632812 -4.96875 7.78125 -4.804688 7.875 -4.640625 C 7.96875 -4.484375 8.03125 -4.300781 8.0625 -4.09375 C 8.09375 -3.882812 8.097656 -3.695312 8.078125 -3.53125 C 8.066406 -3.363281 8.03125 -3.195312 7.96875 -3.03125 C 7.695312 -2.1875 7.125 -1.734375 6.25 -1.671875 C 6.363281 -1.578125 6.445312 -1.503906 6.5 -1.453125 C 6.5625 -1.398438 6.625 -1.328125 6.6875 -1.234375 C 6.75 -1.148438 6.789062 -1.082031 6.8125 -1.03125 C 6.832031 -0.988281 6.84375 -0.910156 6.84375 -0.796875 C 6.851562 -0.679688 6.847656 -0.578125 6.828125 -0.484375 C 6.816406 -0.398438 6.789062 -0.257812 6.75 -0.0625 C 6.707031 0.125 6.660156 0.296875 6.609375 0.453125 C 6.554688 0.617188 6.488281 0.859375 6.40625 1.171875 C 6.351562 1.316406 6.335938 1.4375 6.359375 1.53125 C 6.378906 1.625 6.429688 1.722656 6.515625 1.828125 L 6.4375 2.078125 L 4.90625 1.578125 C 4.875 1.390625 4.867188 1.210938 4.890625 1.046875 C 4.910156 0.890625 4.976562 0.648438 5.09375 0.328125 Z M 6.484375 -3.28125 C 6.546875 -3.46875 6.570312 -3.625 6.5625 -3.75 C 6.5625 -3.882812 6.519531 -4 6.4375 -4.09375 C 6.351562 -4.1875 6.257812 -4.257812 6.15625 -4.3125 C 6.0625 -4.363281 5.925781 -4.414062 5.75 -4.46875 L 4.03125 -5.03125 L 3.453125 -3.234375 L 5.171875 -2.671875 C 5.335938 -2.628906 5.476562 -2.597656 5.59375 -2.578125 C 5.707031 -2.554688 5.820312 -2.5625 5.9375 -2.59375 C 6.0625 -2.632812 6.164062 -2.707031 6.25 -2.8125 C 6.34375 -2.925781 6.421875 -3.082031 6.484375 -3.28125 Z M 6.484375 -3.28125 "/></g></g></g><g fill="#f6e7d8" fill-opacity="1"><g transform="translate(224.457126, 105.670218)"><g><path d="M 3.375 -1.9375 L 2.59375 -0.203125 L 6.203125 1.390625 L 5.703125 2.53125 L 0.71875 0.3125 L 3.6875 -6.359375 L 8.515625 -4.21875 L 8 -3.0625 L 4.546875 -4.578125 L 3.875 -3.078125 L 7.0625 -1.671875 L 6.5625 -0.53125 Z M 3.375 -1.9375 "/></g></g></g><g fill="#f6e7d8" fill-opacity="1"><g transform="translate(233.659252, 109.943381)"><g><path d="M 4.90625 1.390625 C 5.007812 1.210938 5.085938 1.070312 5.140625 0.96875 C 5.203125 0.875 5.253906 0.789062 5.296875 0.71875 C 5.453125 0.445312 5.5 0.21875 5.4375 0.03125 C 5.375 -0.15625 5.203125 -0.328125 4.921875 -0.484375 L 3.4375 -1.34375 L 1.984375 1.15625 L 0.6875 0.40625 L 4.34375 -5.90625 L 7.734375 -3.953125 C 7.992188 -3.804688 8.203125 -3.632812 8.359375 -3.4375 C 8.515625 -3.238281 8.617188 -3.050781 8.671875 -2.875 C 8.734375 -2.695312 8.757812 -2.503906 8.75 -2.296875 C 8.738281 -2.097656 8.707031 -1.914062 8.65625 -1.75 C 8.601562 -1.582031 8.535156 -1.421875 8.453125 -1.265625 C 8.003906 -0.503906 7.34375 -0.191406 6.46875 -0.328125 C 6.550781 -0.203125 6.617188 -0.101562 6.671875 -0.03125 C 6.722656 0.03125 6.765625 0.109375 6.796875 0.203125 C 6.835938 0.296875 6.863281 0.367188 6.875 0.421875 C 6.882812 0.472656 6.878906 0.554688 6.859375 0.671875 C 6.835938 0.785156 6.8125 0.882812 6.78125 0.96875 C 6.757812 1.0625 6.707031 1.191406 6.625 1.359375 C 6.539062 1.535156 6.457031 1.695312 6.375 1.84375 C 6.289062 1.988281 6.171875 2.203125 6.015625 2.484375 C 5.929688 2.617188 5.890625 2.734375 5.890625 2.828125 C 5.890625 2.929688 5.925781 3.039062 6 3.15625 L 5.859375 3.390625 L 4.46875 2.578125 C 4.46875 2.390625 4.5 2.21875 4.5625 2.0625 C 4.625 1.90625 4.738281 1.679688 4.90625 1.390625 Z M 7.03125 -1.828125 C 7.125 -1.992188 7.179688 -2.144531 7.203125 -2.28125 C 7.234375 -2.414062 7.21875 -2.535156 7.15625 -2.640625 C 7.09375 -2.753906 7.015625 -2.847656 6.921875 -2.921875 C 6.835938 -2.992188 6.722656 -3.070312 6.578125 -3.15625 L 5 -4.0625 L 4.0625 -2.421875 L 5.640625 -1.515625 C 5.773438 -1.429688 5.898438 -1.367188 6.015625 -1.328125 C 6.128906 -1.296875 6.242188 -1.28125 6.359375 -1.28125 C 6.484375 -1.289062 6.597656 -1.335938 6.703125 -1.421875 C 6.816406 -1.515625 6.925781 -1.648438 7.03125 -1.828125 Z M 7.03125 -1.828125 "/></g></g></g><g fill="#f6e7d8" fill-opacity="1"><g transform="translate(242.8143, 115.471584)"><g><path d="M 3.71875 -1.171875 L 2.59375 0.34375 L 5.765625 2.65625 L 5.03125 3.671875 L 0.625 0.46875 L 4.9375 -5.421875 L 9.203125 -2.3125 L 8.453125 -1.296875 L 5.421875 -3.515625 L 4.453125 -2.1875 L 7.265625 -0.140625 L 6.53125 0.875 Z M 3.71875 -1.171875 "/></g></g></g><g fill="#f6e7d8" fill-opacity="1"><g transform="translate(100.574712, 225.374985)"><g><path d="M 101.183594 21.449219 C 101.746094 21.898438 102.308594 22.347656 102.980469 22.574219 C 103.542969 22.910156 103.992188 23.023438 104.328125 23.023438 C 104.777344 23.023438 105.113281 22.910156 105.113281 22.683594 C 105.113281 22.460938 104.777344 21.898438 104.214844 20.777344 C 103.316406 18.980469 102.644531 17.183594 102.195312 15.273438 C 101.746094 13.363281 101.519531 11.230469 101.632812 8.871094 C 101.632812 4.605469 102.757812 -1.011719 104.890625 -7.859375 C 106.910156 -14.597656 110.167969 -23.695312 114.660156 -35.261719 C 115.785156 -38.296875 116.90625 -40.992188 117.804688 -43.347656 L 120.164062 -49.636719 C 121.285156 -53.007812 122.074219 -55.703125 122.523438 -57.722656 C 122.972656 -59.746094 123.195312 -61.652344 123.308594 -63.675781 C 123.308594 -64.574219 123.421875 -65.472656 123.421875 -66.371094 C 123.421875 -68.390625 123.195312 -70.078125 122.859375 -71.425781 C 122.296875 -73.109375 121.175781 -74.792969 119.601562 -76.589844 C 116.90625 -79.0625 114.324219 -80.519531 111.742188 -81.195312 C 109.15625 -81.644531 106.460938 -81.308594 103.65625 -79.960938 C 100.511719 -78.386719 96.578125 -74.90625 91.863281 -69.402344 C 87.035156 -63.898438 82.429688 -57.5 77.9375 -50.199219 C 76.925781 -48.625 76.027344 -47.390625 75.355469 -46.269531 C 74.679688 -45.144531 74.230469 -44.695312 74.230469 -44.695312 C 74.230469 -44.695312 74.230469 -45.257812 74.34375 -46.15625 C 74.34375 -47.054688 74.457031 -48.066406 74.679688 -49.300781 C 75.128906 -52.445312 75.242188 -55.589844 75.019531 -58.734375 C 74.792969 -61.765625 74.230469 -63.898438 73.558594 -65.246094 C 72.882812 -66.371094 71.648438 -67.605469 70.078125 -68.953125 C 68.503906 -70.300781 67.042969 -71.199219 65.695312 -71.648438 C 65.023438 -71.875 64.460938 -71.875 64.011719 -71.875 C 63.449219 -71.761719 62.777344 -71.535156 61.878906 -71.199219 C 60.082031 -70.300781 57.386719 -67.941406 54.015625 -64.125 C 50.535156 -60.082031 47.503906 -56.039062 44.921875 -51.882812 C 44.359375 -50.984375 43.910156 -50.3125 43.574219 -49.863281 C 43.125 -49.300781 42.898438 -49.074219 42.898438 -49.074219 C 42.898438 -49.074219 43.011719 -49.863281 43.238281 -51.320312 C 43.460938 -52.667969 43.6875 -54.464844 44.136719 -56.488281 C 44.695312 -59.296875 45.144531 -61.765625 45.371094 -63.898438 C 45.59375 -65.921875 45.707031 -68.730469 45.707031 -72.324219 C 45.707031 -76.367188 45.59375 -78.949219 45.480469 -80.183594 C 45.371094 -81.308594 45.03125 -82.65625 44.472656 -84.003906 C 44.023438 -84.789062 43.574219 -85.6875 42.898438 -86.585938 C 42.226562 -87.484375 41.550781 -88.15625 41.101562 -88.71875 C 37.398438 -92.085938 33.914062 -93.773438 30.660156 -93.773438 C 30.210938 -93.773438 29.761719 -93.660156 29.421875 -93.660156 C 25.71875 -93.210938 21.449219 -90.515625 16.621094 -85.574219 C 11.453125 -80.410156 7.410156 -74.679688 4.492188 -68.390625 C 1.460938 -62.101562 -0.222656 -55.703125 -0.449219 -49.300781 C -0.5625 -47.839844 -0.5625 -46.605469 -0.5625 -45.480469 C -0.5625 -43.460938 -0.449219 -42 -0.222656 -40.992188 C 0.113281 -39.417969 1.011719 -38.070312 2.582031 -36.835938 C 4.828125 -35.039062 6.0625 -34.363281 6.511719 -34.8125 C 6.851562 -35.261719 7.074219 -37.621094 7.300781 -42.113281 C 7.300781 -45.371094 7.410156 -47.726562 7.636719 -49.300781 C 7.859375 -50.761719 8.199219 -52.558594 8.871094 -54.691406 C 9.65625 -57.386719 10.667969 -59.96875 12.015625 -62.664062 C 13.140625 -65.359375 14.597656 -67.832031 16.171875 -70.300781 C 19.089844 -74.792969 22.234375 -78.613281 25.71875 -81.867188 C 29.085938 -85.011719 32.34375 -87.035156 35.375 -87.707031 C 36.273438 -87.820312 36.835938 -87.820312 37.058594 -87.707031 C 37.171875 -87.484375 37.398438 -86.808594 37.847656 -85.6875 C 38.40625 -83.441406 38.519531 -79.621094 38.070312 -74.230469 C 37.621094 -68.839844 36.835938 -63 35.601562 -56.9375 C 33.804688 -48.625 32.34375 -41.664062 31.109375 -36.050781 C 29.761719 -30.433594 28.414062 -25.378906 27.175781 -21 C 26.390625 -18.082031 25.828125 -16.058594 25.605469 -14.710938 C 25.378906 -13.363281 25.269531 -12.464844 25.492188 -12.242188 C 25.828125 -11.679688 26.839844 -10.78125 28.636719 -9.65625 C 30.433594 -8.308594 31.445312 -7.75 31.894531 -7.75 C 32.117188 -7.75 32.34375 -8.085938 32.792969 -8.984375 C 33.242188 -9.65625 33.691406 -10.667969 34.140625 -11.792969 C 35.375 -15.046875 36.949219 -18.53125 38.855469 -22.347656 C 40.652344 -25.941406 42.675781 -29.648438 44.808594 -33.464844 C 48.625 -40.429688 52.667969 -46.71875 56.710938 -52.558594 C 60.753906 -58.285156 63.898438 -61.992188 66.371094 -63.675781 C 66.820312 -64.011719 67.269531 -64.347656 67.605469 -64.574219 L 67.269531 -58.507812 C 67.042969 -54.464844 66.371094 -49.75 65.472656 -44.136719 C 64.460938 -38.40625 63.113281 -32.230469 61.542969 -25.605469 C 60.53125 -21.5625 59.855469 -18.753906 59.632812 -17.070312 C 59.296875 -15.273438 59.296875 -14.261719 59.519531 -13.925781 C 59.855469 -13.363281 60.867188 -12.464844 62.664062 -11.230469 C 64.460938 -9.996094 65.585938 -9.433594 66.035156 -9.433594 C 66.144531 -9.433594 66.820312 -10.445312 68.054688 -12.578125 C 69.179688 -14.710938 70.527344 -17.292969 72.097656 -20.328125 C 76.367188 -29.085938 80.183594 -36.160156 83.554688 -41.664062 C 86.699219 -47.054688 90.402344 -52.558594 94.558594 -58.171875 C 98.152344 -63 101.746094 -66.933594 105.226562 -70.078125 C 108.597656 -72.996094 111.515625 -74.792969 113.875 -75.242188 L 115.894531 -75.578125 C 115.785156 -72.882812 115.671875 -70.863281 115.671875 -69.515625 C 115.445312 -67.042969 115.222656 -64.796875 114.886719 -62.890625 C 114.4375 -60.867188 113.539062 -57.835938 112.078125 -53.679688 L 109.71875 -47.390625 C 108.820312 -44.921875 107.699219 -42.113281 106.460938 -38.855469 C 104.554688 -34.027344 102.980469 -29.761719 101.632812 -26.167969 C 100.285156 -22.574219 99.164062 -19.429688 98.265625 -16.734375 C 96.46875 -11.566406 95.34375 -7.636719 94.894531 -4.714844 C 94.332031 -1.796875 94.109375 1.234375 94.109375 4.265625 C 94.109375 7.1875 94.222656 9.097656 94.445312 10.21875 C 94.558594 11.34375 95.007812 12.578125 95.679688 14.148438 C 96.46875 16.171875 97.253906 17.632812 97.925781 18.417969 C 98.488281 19.316406 99.613281 20.328125 101.183594 21.449219 Z M 101.183594 21.449219 "/></g></g></g><g fill="#f6e7d8" fill-opacity="1"><g transform="translate(217.816816, 225.374985)"><g><path d="M 17.40625 -0.113281 C 18.082031 0 18.980469 0 19.878906 0 C 20.886719 0 22.011719 0 23.246094 -0.222656 C 25.269531 -0.449219 27.175781 -0.898438 28.863281 -1.570312 C 32.007812 -2.808594 35.488281 -5.054688 39.082031 -8.199219 C 42.675781 -11.34375 45.820312 -14.824219 48.515625 -18.753906 C 49.863281 -20.664062 51.210938 -23.132812 52.558594 -26.277344 C 53.90625 -29.3125 54.578125 -31.332031 54.578125 -32.457031 C 54.578125 -33.128906 53.566406 -34.140625 51.769531 -35.710938 C 49.972656 -37.285156 48.738281 -37.957031 48.066406 -37.847656 C 47.839844 -37.847656 47.503906 -37.507812 47.167969 -36.835938 C 46.71875 -36.160156 46.378906 -35.261719 46.042969 -34.363281 C 44.921875 -31.445312 43.6875 -28.75 42.113281 -26.054688 C 40.429688 -23.359375 38.632812 -20.886719 36.609375 -18.640625 C 32.792969 -14.375 28.75 -11.003906 24.371094 -8.648438 C 19.878906 -6.175781 15.722656 -5.164062 11.902344 -5.839844 C 10.78125 -5.953125 10.105469 -6.175781 9.769531 -6.511719 C 9.433594 -6.738281 8.984375 -7.523438 8.535156 -8.757812 C 7.859375 -10.554688 7.523438 -13.027344 7.636719 -16.394531 C 7.636719 -19.652344 8.085938 -22.910156 8.871094 -26.054688 C 9.65625 -29.3125 10.667969 -32.679688 12.015625 -36.160156 C 13.363281 -39.53125 14.824219 -43.011719 16.507812 -46.378906 C 19.539062 -52.667969 22.910156 -58.285156 26.726562 -63.339844 C 30.433594 -68.390625 33.914062 -71.875 37.285156 -73.78125 C 37.957031 -74.230469 38.632812 -74.570312 39.304688 -74.90625 C 39.980469 -75.128906 40.316406 -75.355469 40.542969 -75.355469 C 40.765625 -75.355469 40.765625 -74.34375 40.542969 -72.324219 C 40.203125 -70.1875 39.753906 -68.054688 39.082031 -66.035156 C 38.632812 -64.460938 38.296875 -63.339844 38.296875 -62.777344 C 38.183594 -62.101562 38.296875 -61.652344 38.632812 -61.429688 C 39.082031 -60.753906 40.09375 -59.96875 41.777344 -58.847656 C 43.460938 -57.722656 44.472656 -57.273438 44.921875 -57.273438 C 45.371094 -57.273438 45.929688 -58.621094 46.828125 -61.429688 C 47.726562 -64.125 48.175781 -66.484375 48.402344 -68.503906 C 48.515625 -70.75 48.175781 -72.773438 47.277344 -74.34375 C 46.378906 -75.917969 44.808594 -77.488281 42.5625 -79.0625 C 40.316406 -80.519531 38.40625 -81.308594 36.722656 -81.417969 C 36.5 -81.417969 36.386719 -81.53125 36.160156 -81.53125 C 34.589844 -81.417969 32.792969 -80.859375 30.769531 -79.960938 C 27.289062 -78.164062 23.582031 -74.679688 19.652344 -69.402344 C 15.609375 -64.011719 11.902344 -58.058594 8.757812 -51.546875 C 6.960938 -47.953125 5.503906 -44.359375 4.15625 -40.765625 C 2.808594 -36.949219 1.683594 -33.355469 1.011719 -29.984375 C 0.335938 -27.515625 0 -24.59375 0 -21.335938 L 0 -19.988281 C 0 -17.40625 0.113281 -15.386719 0.5625 -14.039062 C 1.460938 -10.78125 3.707031 -7.75 7.074219 -5.054688 C 10.445312 -2.132812 13.925781 -0.5625 17.40625 -0.113281 Z M 17.40625 -0.113281 "/></g></g></g><g fill="#f6e7d8" fill-opacity="1"><g transform="translate(111.550955, 230.810739)"><g><path d="M 2.953125 1.203125 L 0.671875 1.984375 L 0.234375 0.671875 L 6.609375 -1.515625 L 7.5625 1.28125 C 7.789062 1.957031 7.789062 2.53125 7.5625 3 C 7.34375 3.46875 6.914062 3.8125 6.28125 4.03125 C 5.632812 4.25 5.0625 4.25 4.5625 4.03125 C 4.0625 3.8125 3.710938 3.410156 3.515625 2.828125 Z M 4.046875 0.828125 L 4.46875 2.03125 C 4.59375 2.382812 4.753906 2.617188 4.953125 2.734375 C 5.160156 2.847656 5.425781 2.847656 5.75 2.734375 C 6.070312 2.628906 6.285156 2.460938 6.390625 2.234375 C 6.503906 2.015625 6.5 1.726562 6.375 1.375 L 5.953125 0.171875 Z M 4.046875 0.828125 "/></g></g></g><g fill="#f6e7d8" fill-opacity="1"><g transform="translate(115.015733, 240.158835)"><g><path d="M 6.984375 -1.03125 L 1.96875 1.40625 L 3.375 4.3125 L 2.328125 4.8125 L 0.3125 0.65625 L 6.375 -2.28125 Z M 6.984375 -1.03125 "/></g></g></g><g fill="#f6e7d8" fill-opacity="1"><g transform="translate(119.325734, 248.582959)"><g><path d="M 3.65625 3.140625 L 2.28125 1.03125 L 0.90625 1.390625 L 0.125 0.203125 L 7.09375 -1.4375 L 7.921875 -0.171875 L 3.53125 5.4375 L 2.765625 4.265625 Z M 4.421875 2.1875 L 6.15625 0.03125 L 3.46875 0.71875 Z M 4.421875 2.1875 "/></g></g></g><g fill="#f6e7d8" fill-opacity="1"><g transform="translate(125.250155, 257.257863)"><g><path d="M 3.0625 3.59375 L 4.859375 -1.484375 L 1.3125 1.53125 L 0.40625 0.46875 L 5.53125 -3.90625 L 6.453125 -2.8125 L 4.703125 2.1875 L 8.1875 -0.78125 L 9.09375 0.28125 L 3.96875 4.65625 Z M 3.0625 3.59375 "/></g></g></g><g fill="#f6e7d8" fill-opacity="1"><g transform="translate(132.255738, 265.074543)"><g><path d="M 3.53125 -0.734375 L 2.359375 0.5625 L 5.046875 3.015625 L 4.265625 3.875 L 0.546875 0.5 L 5.078125 -4.484375 L 8.671875 -1.21875 L 7.890625 -0.359375 L 5.328125 -2.703125 L 4.296875 -1.578125 L 6.65625 0.578125 L 5.890625 1.421875 Z M 3.53125 -0.734375 "/></g></g></g><g fill="#f6e7d8" fill-opacity="1"><g transform="translate(139.800519, 271.57801)"><g><path d="M 1.765625 1.53125 C 1.609375 1.40625 1.460938 1.273438 1.328125 1.140625 C 1.203125 1.015625 1.085938 0.859375 0.984375 0.671875 C 0.878906 0.484375 0.8125 0.285156 0.78125 0.078125 C 0.757812 -0.128906 0.785156 -0.359375 0.859375 -0.609375 C 0.929688 -0.859375 1.054688 -1.109375 1.234375 -1.359375 L 1.625 -1.90625 L 2.765625 -1.09375 L 2.390625 -0.5625 C 2.210938 -0.3125 2.128906 -0.0976562 2.140625 0.078125 C 2.148438 0.265625 2.257812 0.429688 2.46875 0.578125 C 2.675781 0.722656 2.867188 0.773438 3.046875 0.734375 C 3.234375 0.703125 3.398438 0.585938 3.546875 0.390625 L 6.4375 -3.671875 L 7.5625 -2.875 L 4.671875 1.1875 C 4.304688 1.695312 3.867188 1.976562 3.359375 2.03125 C 2.859375 2.09375 2.328125 1.925781 1.765625 1.53125 Z M 1.765625 1.53125 "/></g></g></g><g fill="#f6e7d8" fill-opacity="1"><g transform="translate(147.191704, 276.621286)"><g><path d="M 4.71875 1.03125 L 2.515625 -0.171875 L 1.453125 0.796875 L 0.203125 0.109375 L 5.53125 -4.65625 L 6.875 -3.9375 L 5.703125 3.09375 L 4.453125 2.421875 Z M 4.9375 -0.171875 L 5.421875 -2.90625 L 3.40625 -1.015625 Z M 4.9375 -0.171875 "/></g></g></g><g fill="#f6e7d8" fill-opacity="1"><g transform="translate(156.535987, 281.420984)"><g><path d="M 4.40625 1.703125 L 3.546875 -3.625 L 1.875 0.71875 L 0.578125 0.21875 L 3 -6.0625 L 4.328125 -5.546875 L 5.1875 -0.3125 L 6.828125 -4.578125 L 8.125 -4.078125 L 5.703125 2.203125 Z M 4.40625 1.703125 "/></g></g></g><g fill="#f6e7d8" fill-opacity="1"><g transform="translate(166.426609, 284.960595)"><g><path d="M 0.703125 0.171875 L 2.28125 -6.375 L 4.828125 -5.765625 C 5.328125 -5.640625 5.722656 -5.476562 6.015625 -5.28125 C 6.316406 -5.082031 6.550781 -4.828125 6.71875 -4.515625 C 7.101562 -3.734375 7.171875 -2.828125 6.921875 -1.796875 C 6.660156 -0.742188 6.1875 0.0195312 5.5 0.5 C 5.21875 0.726562 4.894531 0.863281 4.53125 0.90625 C 4.175781 0.945312 3.75 0.90625 3.25 0.78125 Z M 2.296875 -0.640625 L 3.515625 -0.34375 C 4.523438 -0.09375 5.203125 -0.679688 5.546875 -2.109375 C 5.898438 -3.546875 5.570312 -4.390625 4.5625 -4.640625 L 3.34375 -4.9375 Z M 2.296875 -0.640625 "/></g></g></g><g fill="#f6e7d8" fill-opacity="1"><g transform="translate(176.701726, 287.192043)"><g><path d="M 0.921875 -1.40625 C 0.710938 -1.96875 0.640625 -2.585938 0.703125 -3.265625 C 0.773438 -3.941406 0.96875 -4.53125 1.28125 -5.03125 C 1.601562 -5.53125 2.023438 -5.90625 2.546875 -6.15625 C 3.066406 -6.414062 3.644531 -6.507812 4.28125 -6.4375 C 5.25 -6.34375 6 -5.9375 6.53125 -5.21875 C 7.0625 -4.5 7.269531 -3.609375 7.15625 -2.546875 C 7.113281 -2.066406 6.992188 -1.625 6.796875 -1.21875 C 6.597656 -0.820312 6.34375 -0.476562 6.03125 -0.1875 C 5.726562 0.101562 5.363281 0.3125 4.9375 0.4375 C 4.519531 0.570312 4.066406 0.617188 3.578125 0.578125 C 2.929688 0.503906 2.378906 0.296875 1.921875 -0.046875 C 1.460938 -0.398438 1.128906 -0.851562 0.921875 -1.40625 Z M 4.171875 -5.25 C 3.609375 -5.3125 3.132812 -5.148438 2.75 -4.765625 C 2.375 -4.378906 2.148438 -3.832031 2.078125 -3.125 C 2.003906 -2.414062 2.113281 -1.832031 2.40625 -1.375 C 2.695312 -0.914062 3.125 -0.65625 3.6875 -0.59375 C 4.238281 -0.539062 4.707031 -0.707031 5.09375 -1.09375 C 5.476562 -1.476562 5.703125 -2.007812 5.765625 -2.6875 C 5.847656 -3.425781 5.742188 -4.023438 5.453125 -4.484375 C 5.160156 -4.941406 4.734375 -5.195312 4.171875 -5.25 Z M 4.171875 -5.25 "/></g></g></g><g fill="#f6e7d8" fill-opacity="1"><g transform="translate(187.630928, 287.987413)"><g/></g></g><g fill="#f6e7d8" fill-opacity="1"><g transform="translate(193.963757, 287.85414)"><g><path d="M 5.078125 -5.234375 L 3.78125 -5.09375 C 3.726562 -5.445312 3.570312 -5.695312 3.3125 -5.84375 C 3.0625 -6 2.71875 -6.054688 2.28125 -6.015625 C 1.914062 -5.972656 1.632812 -5.863281 1.4375 -5.6875 C 1.25 -5.519531 1.171875 -5.3125 1.203125 -5.0625 C 1.222656 -4.8125 1.328125 -4.632812 1.515625 -4.53125 C 1.710938 -4.425781 2.066406 -4.363281 2.578125 -4.34375 L 3.640625 -4.25 C 4.265625 -4.1875 4.734375 -4.023438 5.046875 -3.765625 C 5.359375 -3.503906 5.546875 -3.109375 5.609375 -2.578125 C 5.679688 -1.898438 5.492188 -1.34375 5.046875 -0.90625 C 4.597656 -0.476562 3.941406 -0.21875 3.078125 -0.125 C 2.222656 -0.03125 1.539062 -0.144531 1.03125 -0.46875 C 0.519531 -0.800781 0.203125 -1.320312 0.078125 -2.03125 L 1.40625 -2.171875 C 1.46875 -1.804688 1.640625 -1.546875 1.921875 -1.390625 C 2.203125 -1.234375 2.578125 -1.175781 3.046875 -1.21875 C 3.472656 -1.269531 3.796875 -1.390625 4.015625 -1.578125 C 4.234375 -1.765625 4.328125 -1.992188 4.296875 -2.265625 C 4.265625 -2.535156 4.144531 -2.734375 3.9375 -2.859375 C 3.738281 -2.984375 3.40625 -3.066406 2.9375 -3.109375 L 1.984375 -3.203125 C 1.296875 -3.253906 0.789062 -3.398438 0.46875 -3.640625 C 0.15625 -3.890625 -0.03125 -4.273438 -0.09375 -4.796875 C -0.15625 -5.441406 0.0078125 -5.96875 0.40625 -6.375 C 0.800781 -6.789062 1.40625 -7.039062 2.21875 -7.125 C 2.375 -7.144531 2.53125 -7.15625 2.6875 -7.15625 C 2.851562 -7.15625 3.023438 -7.144531 3.203125 -7.125 C 3.390625 -7.101562 3.5625 -7.066406 3.71875 -7.015625 C 3.875 -6.960938 4.03125 -6.890625 4.1875 -6.796875 C 4.34375 -6.703125 4.476562 -6.582031 4.59375 -6.4375 C 4.71875 -6.300781 4.820312 -6.128906 4.90625 -5.921875 C 5 -5.722656 5.054688 -5.492188 5.078125 -5.234375 Z M 5.078125 -5.234375 "/></g></g></g><g fill="#f6e7d8" fill-opacity="1"><g transform="translate(203.859184, 286.557297)"><g><path d="M 1.390625 -3.3125 L 1.796875 -1.609375 L 5.34375 -2.4375 L 5.609375 -1.3125 L 0.71875 -0.171875 L -0.828125 -6.734375 L 3.90625 -7.84375 L 4.171875 -6.71875 L 0.78125 -5.921875 L 1.140625 -4.421875 L 4.265625 -5.15625 L 4.515625 -4.046875 Z M 1.390625 -3.3125 "/></g></g></g><g fill="#f6e7d8" fill-opacity="1"><g transform="translate(213.529132, 284.051656)"><g><path d="M 3.234375 -1 C 3.003906 -0.90625 2.773438 -0.832031 2.546875 -0.78125 C 2.316406 -0.738281 2.066406 -0.726562 1.796875 -0.75 C 1.523438 -0.769531 1.273438 -0.828125 1.046875 -0.921875 C 0.828125 -1.023438 0.613281 -1.191406 0.40625 -1.421875 C 0.195312 -1.648438 0.0234375 -1.9375 -0.109375 -2.28125 L -1.703125 -6.5625 L -0.40625 -7.046875 L 1.1875 -2.765625 C 1.332031 -2.378906 1.535156 -2.128906 1.796875 -2.015625 C 2.066406 -1.910156 2.40625 -1.9375 2.8125 -2.09375 C 3.21875 -2.238281 3.484375 -2.441406 3.609375 -2.703125 C 3.742188 -2.972656 3.738281 -3.296875 3.59375 -3.671875 L 2 -7.953125 L 3.28125 -8.421875 L 4.875 -4.140625 C 5.007812 -3.796875 5.070312 -3.472656 5.0625 -3.171875 C 5.0625 -2.867188 5.003906 -2.601562 4.890625 -2.375 C 4.785156 -2.15625 4.640625 -1.945312 4.453125 -1.75 C 4.273438 -1.5625 4.082031 -1.410156 3.875 -1.296875 C 3.675781 -1.179688 3.460938 -1.082031 3.234375 -1 Z M 3.234375 -1 "/></g></g></g><g fill="#f6e7d8" fill-opacity="1"><g transform="translate(223.188218, 280.110084)"><g/></g></g><g fill="#f6e7d8" fill-opacity="1"><g transform="translate(228.798126, 277.18825)"><g><path d="M 0.203125 -3.5625 L 1.75 -1.09375 L 0.578125 -0.359375 L -3 -6.0625 L 1 -8.578125 L 1.609375 -7.59375 L -1.21875 -5.8125 L -0.40625 -4.515625 L 2.09375 -6.09375 L 2.703125 -5.140625 Z M 0.203125 -3.5625 "/></g></g></g><g fill="#f6e7d8" fill-opacity="1"><g transform="translate(236.701425, 271.983407)"><g><path d="M 2.734375 -1.984375 C 2.546875 -1.816406 2.351562 -1.675781 2.15625 -1.5625 C 1.957031 -1.445312 1.722656 -1.351562 1.453125 -1.28125 C 1.191406 -1.21875 0.9375 -1.195312 0.6875 -1.21875 C 0.445312 -1.238281 0.191406 -1.320312 -0.078125 -1.46875 C -0.347656 -1.625 -0.597656 -1.84375 -0.828125 -2.125 L -3.71875 -5.65625 L -2.640625 -6.546875 L 0.25 -3.015625 C 0.507812 -2.691406 0.78125 -2.519531 1.0625 -2.5 C 1.351562 -2.476562 1.664062 -2.609375 2 -2.890625 C 2.332031 -3.160156 2.519531 -3.4375 2.5625 -3.71875 C 2.601562 -4.007812 2.492188 -4.316406 2.234375 -4.640625 L -0.65625 -8.171875 L 0.40625 -9.03125 L 3.296875 -5.5 C 3.523438 -5.21875 3.6875 -4.925781 3.78125 -4.625 C 3.875 -4.332031 3.90625 -4.0625 3.875 -3.8125 C 3.851562 -3.570312 3.785156 -3.332031 3.671875 -3.09375 C 3.554688 -2.851562 3.414062 -2.644531 3.25 -2.46875 C 3.09375 -2.289062 2.921875 -2.128906 2.734375 -1.984375 Z M 2.734375 -1.984375 "/></g></g></g><g fill="#f6e7d8" fill-opacity="1"><g transform="translate(244.648821, 265.141955)"><g><path d="M -1.578125 -6.421875 L 2.453125 -2.578125 L 1.5 -1.578125 L -2.53125 -5.421875 L -3.9375 -3.9375 L -4.78125 -4.734375 L -1.0625 -8.625 L -0.21875 -7.828125 Z M -1.578125 -6.421875 "/></g></g></g><g fill="#f6e7d8" fill-opacity="1"><g transform="translate(251.029327, 258.153668)"><g><path d="M 2.171875 -2.59375 C 2.015625 -2.382812 1.851562 -2.195312 1.6875 -2.03125 C 1.53125 -1.875 1.332031 -1.734375 1.09375 -1.609375 C 0.851562 -1.484375 0.613281 -1.398438 0.375 -1.359375 C 0.132812 -1.316406 -0.132812 -1.332031 -0.4375 -1.40625 C -0.738281 -1.488281 -1.035156 -1.640625 -1.328125 -1.859375 L -4.984375 -4.5625 L -4.15625 -5.6875 L -0.5 -2.984375 C -0.164062 -2.734375 0.140625 -2.632812 0.421875 -2.6875 C 0.703125 -2.738281 0.972656 -2.941406 1.234375 -3.296875 C 1.484375 -3.640625 1.59375 -3.953125 1.5625 -4.234375 C 1.53125 -4.523438 1.347656 -4.789062 1.015625 -5.03125 L -2.640625 -7.734375 L -1.8125 -8.84375 L 1.84375 -6.140625 C 2.132812 -5.921875 2.363281 -5.679688 2.53125 -5.421875 C 2.695312 -5.160156 2.789062 -4.90625 2.8125 -4.65625 C 2.84375 -4.414062 2.832031 -4.160156 2.78125 -3.890625 C 2.738281 -3.628906 2.660156 -3.394531 2.546875 -3.1875 C 2.429688 -2.976562 2.304688 -2.78125 2.171875 -2.59375 Z M 2.171875 -2.59375 "/></g></g></g><g fill="#f6e7d8" fill-opacity="1"><g transform="translate(257.076722, 249.563991)"><g><path d="M 1.203125 -4.546875 C 1.046875 -4.640625 0.921875 -4.707031 0.828125 -4.75 C 0.734375 -4.800781 0.648438 -4.847656 0.578125 -4.890625 C 0.335938 -5.023438 0.128906 -5.066406 -0.046875 -5.015625 C -0.234375 -4.960938 -0.398438 -4.804688 -0.546875 -4.546875 L -1.3125 -3.15625 L 1.03125 -1.859375 L 0.359375 -0.640625 L -5.53125 -3.90625 L -3.78125 -7.0625 C -3.644531 -7.3125 -3.488281 -7.507812 -3.3125 -7.65625 C -3.144531 -7.8125 -2.972656 -7.914062 -2.796875 -7.96875 C -2.628906 -8.019531 -2.453125 -8.039062 -2.265625 -8.03125 C -2.078125 -8.03125 -1.90625 -8.003906 -1.75 -7.953125 C -1.601562 -7.910156 -1.457031 -7.851562 -1.3125 -7.78125 C -0.59375 -7.375 -0.289062 -6.769531 -0.40625 -5.96875 C -0.300781 -6.039062 -0.21875 -6.101562 -0.15625 -6.15625 C -0.09375 -6.207031 -0.0195312 -6.25 0.0625 -6.28125 C 0.144531 -6.320312 0.210938 -6.34375 0.265625 -6.34375 C 0.316406 -6.351562 0.394531 -6.351562 0.5 -6.34375 C 0.613281 -6.332031 0.707031 -6.3125 0.78125 -6.28125 C 0.863281 -6.25 0.984375 -6.195312 1.140625 -6.125 C 1.304688 -6.050781 1.460938 -5.976562 1.609375 -5.90625 C 1.753906 -5.832031 1.945312 -5.734375 2.1875 -5.609375 C 2.320312 -5.535156 2.429688 -5.5 2.515625 -5.5 C 2.609375 -5.5 2.707031 -5.53125 2.8125 -5.59375 L 3.03125 -5.46875 L 2.3125 -4.171875 C 2.132812 -4.171875 1.972656 -4.191406 1.828125 -4.234375 C 1.691406 -4.285156 1.484375 -4.390625 1.203125 -4.546875 Z M -1.8125 -6.484375 C -1.96875 -6.566406 -2.109375 -6.613281 -2.234375 -6.625 C -2.359375 -6.644531 -2.46875 -6.625 -2.5625 -6.5625 C -2.664062 -6.507812 -2.75 -6.441406 -2.8125 -6.359375 C -2.882812 -6.273438 -2.957031 -6.160156 -3.03125 -6.015625 L -3.84375 -4.5625 L -2.3125 -3.71875 L -1.5 -5.171875 C -1.425781 -5.316406 -1.375 -5.441406 -1.34375 -5.546875 C -1.3125 -5.648438 -1.296875 -5.753906 -1.296875 -5.859375 C -1.296875 -5.972656 -1.335938 -6.082031 -1.421875 -6.1875 C -1.515625 -6.289062 -1.644531 -6.390625 -1.8125 -6.484375 Z M -1.8125 -6.484375 "/></g></g></g><g fill="#f6e7d8" fill-opacity="1"><g transform="translate(261.964453, 240.253367)"><g><path d="M -1.109375 -1.25 C -1.703125 -1.195312 -2.3125 -1.296875 -2.9375 -1.546875 C -3.570312 -1.796875 -4.09375 -2.140625 -4.5 -2.578125 C -4.90625 -3.015625 -5.160156 -3.515625 -5.265625 -4.078125 C -5.367188 -4.648438 -5.300781 -5.234375 -5.0625 -5.828125 C -4.707031 -6.742188 -4.113281 -7.363281 -3.28125 -7.6875 C -2.457031 -8.007812 -1.546875 -7.972656 -0.546875 -7.578125 C -0.0976562 -7.398438 0.289062 -7.164062 0.625 -6.875 C 0.96875 -6.582031 1.234375 -6.25 1.421875 -5.875 C 1.617188 -5.507812 1.722656 -5.097656 1.734375 -4.640625 C 1.753906 -4.191406 1.675781 -3.738281 1.5 -3.28125 C 1.257812 -2.675781 0.910156 -2.195312 0.453125 -1.84375 C -0.00390625 -1.5 -0.523438 -1.300781 -1.109375 -1.25 Z M -3.953125 -5.421875 C -4.160156 -4.898438 -4.125 -4.398438 -3.84375 -3.921875 C -3.570312 -3.453125 -3.101562 -3.085938 -2.4375 -2.828125 C -1.78125 -2.566406 -1.191406 -2.519531 -0.671875 -2.6875 C -0.160156 -2.851562 0.195312 -3.195312 0.40625 -3.71875 C 0.601562 -4.238281 0.566406 -4.734375 0.296875 -5.203125 C 0.0234375 -5.671875 -0.425781 -6.03125 -1.0625 -6.28125 C -1.75 -6.550781 -2.347656 -6.609375 -2.859375 -6.453125 C -3.378906 -6.296875 -3.742188 -5.953125 -3.953125 -5.421875 Z M -3.953125 -5.421875 "/></g></g></g></svg>