<svg xmlns="http://www.w3.org/2000/svg" xmlns:xlink="http://www.w3.org/1999/xlink" width="7559" zoomAndPan="magnify" viewBox="0 0 5669.25 1417.499962" height="1889" preserveAspectRatio="xMidYMid meet" version="1.0"><defs><g/><clipPath id="353c9e367a"><path d="M 0.625 0 L 5667.875 0 L 5667.875 1417 L 0.625 1417 Z M 0.625 0 " clip-rule="nonzero"/></clipPath><clipPath id="aa1ef3aa2d"><path d="M 2507 584 L 3163 584 L 3163 1144.898438 L 2507 1144.898438 Z M 2507 584 " clip-rule="nonzero"/></clipPath><clipPath id="3d977bc359"><path d="M 2401.207031 272.167969 L 3267.9375 272.167969 L 3267.9375 1014 L 2401.207031 1014 Z M 2401.207031 272.167969 " clip-rule="nonzero"/></clipPath></defs><g clip-path="url(#353c9e367a)"><path fill="#ffffff" d="M 0.625 0 L 5669.625 0 L 5669.625 1423.808594 L 0.625 1423.808594 Z M 0.625 0 " fill-opacity="1" fill-rule="nonzero"/><path fill="#ffffff" d="M 0.625 0 L 5668.125 0 L 5668.125 1417.0625 L 0.625 1417.0625 Z M 0.625 0 " fill-opacity="1" fill-rule="nonzero"/><path fill="#464646" d="M 0.625 0 L 5668.125 0 L 5668.125 1417.0625 L 0.625 1417.0625 Z M 0.625 0 " fill-opacity="1" fill-rule="nonzero"/></g><g clip-path="url(#aa1ef3aa2d)"><path fill="#000000" d="M 2834.570312 1144.757812 C 2653.707031 1144.757812 2507.085938 998.046875 2507.085938 817.066406 C 2507.085938 726.152344 2544.105469 643.898438 2603.863281 584.539062 C 2577.175781 626.730469 2561.671875 676.703125 2561.671875 730.320312 C 2561.671875 881.140625 2683.855469 1003.394531 2834.570312 1003.394531 C 2985.285156 1003.394531 3107.472656 881.140625 3107.472656 730.320312 C 3107.472656 676.703125 3091.96875 626.730469 3065.28125 584.539062 C 3125.039062 643.898438 3162.054688 726.152344 3162.054688 817.066406 C 3162.054688 998.046875 3015.4375 1144.757812 2834.570312 1144.757812 " fill-opacity="1" fill-rule="nonzero"/></g><g clip-path="url(#3d977bc359)"><path fill="#f14902" d="M 2834.570312 272.054688 C 2595.332031 272.054688 2401.394531 466.117188 2401.394531 705.507812 C 2401.394531 825.761719 2450.359375 934.558594 2529.402344 1013.078125 C 2494.105469 957.273438 2473.59375 891.171875 2473.59375 820.246094 C 2473.59375 620.757812 2635.210938 459.035156 2834.570312 459.035156 C 3033.933594 459.035156 3195.550781 620.757812 3195.550781 820.246094 C 3195.550781 891.171875 3175.039062 957.273438 3139.742188 1013.078125 C 3218.785156 934.558594 3267.746094 825.761719 3267.746094 705.507812 C 3267.746094 466.117188 3073.808594 272.054688 2834.570312 272.054688 " fill-opacity="1" fill-rule="nonzero"/></g><g fill="#f6e7d8" fill-opacity="1"><g transform="translate(2607.407897, 451.116277)"><g><path d="M -5.875 -22.1875 L 6.640625 -4.765625 L 2.03125 -1.453125 L -14.046875 -23.84375 L -7.1875 -28.78125 L 9.65625 -13.890625 L 0.796875 -34.515625 L 7.734375 -39.5 L 23.8125 -17.109375 L 19.21875 -13.796875 L 6.703125 -31.21875 L 15.25 -10.953125 L 10.640625 -7.640625 Z M -5.875 -22.1875 "/></g></g></g><g fill="#f6e7d8" fill-opacity="1"><g transform="translate(2644.04512, 425.875422)"><g><path d="M 13.84375 -14.0625 L 4.8125 -9.03125 L 5.90625 -3.296875 L 0.859375 -0.484375 L -3.984375 -29.328125 L 1.453125 -32.359375 L 23.1875 -12.921875 L 18.140625 -10.109375 Z M 10.1875 -17.4375 L 1.828125 -25.109375 L 3.921875 -13.953125 Z M 10.1875 -17.4375 "/></g></g></g><g fill="#f6e7d8" fill-opacity="1"><g transform="translate(2679.751763, 406.896764)"><g><path d="M 4.421875 -26.703125 L 13.390625 -5.734375 L 8.140625 -3.484375 L -0.828125 -24.453125 L -8.484375 -21.171875 L -10.359375 -25.546875 L 9.90625 -34.21875 L 11.78125 -29.84375 Z M 4.421875 -26.703125 "/></g></g></g><g fill="#f6e7d8" fill-opacity="1"><g transform="translate(2713.300204, 393.170343)"><g><path d="M 14.0625 -23.4375 C 13.882812 -23.726562 13.726562 -23.972656 13.59375 -24.171875 C 13.457031 -24.378906 13.234375 -24.664062 12.921875 -25.03125 C 12.617188 -25.40625 12.285156 -25.703125 11.921875 -25.921875 C 11.566406 -26.140625 11.144531 -26.34375 10.65625 -26.53125 C 10.175781 -26.71875 9.617188 -26.800781 8.984375 -26.78125 C 8.347656 -26.757812 7.675781 -26.640625 6.96875 -26.421875 C 4.832031 -25.765625 3.414062 -24.425781 2.71875 -22.40625 C 2.019531 -20.382812 2.117188 -17.921875 3.015625 -15.015625 C 3.910156 -12.140625 5.1875 -10.078125 6.84375 -8.828125 C 8.507812 -7.585938 10.382812 -7.289062 12.46875 -7.9375 C 14.15625 -8.46875 15.363281 -9.347656 16.09375 -10.578125 C 16.832031 -11.816406 17.023438 -13.300781 16.671875 -15.03125 L 21.96875 -16.671875 C 22.71875 -13.609375 22.347656 -10.875 20.859375 -8.46875 C 19.378906 -6.070312 17.003906 -4.367188 13.734375 -3.359375 C 10.078125 -2.222656 6.796875 -2.554688 3.890625 -4.359375 C 0.984375 -6.160156 -1.117188 -9.171875 -2.421875 -13.390625 C -3.742188 -17.660156 -3.707031 -21.367188 -2.3125 -24.515625 C -0.914062 -27.671875 1.632812 -29.820312 5.34375 -30.96875 C 8.457031 -31.9375 11.265625 -31.898438 13.765625 -30.859375 C 16.273438 -29.828125 18.097656 -27.882812 19.234375 -25.03125 Z M 14.0625 -23.4375 "/></g></g></g><g fill="#f6e7d8" fill-opacity="1"><g transform="translate(2752.077242, 381.904753)"><g><path d="M 16.421875 -15.890625 L 5.703125 -13.8125 L 8.078125 -1.5625 L 2.515625 -0.484375 L -2.71875 -27.546875 L 2.84375 -28.625 L 4.796875 -18.484375 L 15.5 -20.5625 L 13.546875 -30.703125 L 19.140625 -31.78125 L 24.375 -4.71875 L 18.796875 -3.640625 Z M 16.421875 -15.890625 "/></g></g></g><g fill="#f6e7d8" fill-opacity="1"><g transform="translate(2792.119684, 375.119859)"><g/></g></g><g fill="#f6e7d8" fill-opacity="1"><g transform="translate(2815.882376, 372.861745)"><g><path d="M 20.0625 -18.5625 C 19.976562 -18.882812 19.894531 -19.164062 19.8125 -19.40625 C 19.738281 -19.644531 19.609375 -19.984375 19.421875 -20.421875 C 19.234375 -20.867188 18.992188 -21.242188 18.703125 -21.546875 C 18.421875 -21.859375 18.070312 -22.171875 17.65625 -22.484375 C 17.25 -22.796875 16.738281 -23.03125 16.125 -23.1875 C 15.507812 -23.351562 14.828125 -23.425781 14.078125 -23.40625 C 11.847656 -23.375 10.113281 -22.488281 8.875 -20.75 C 7.644531 -19.007812 7.054688 -16.617188 7.109375 -13.578125 C 7.160156 -10.566406 7.8125 -8.226562 9.0625 -6.5625 C 10.3125 -4.90625 12.023438 -4.09375 14.203125 -4.125 C 15.972656 -4.15625 17.378906 -4.660156 18.421875 -5.640625 C 19.472656 -6.617188 20.066406 -7.992188 20.203125 -9.765625 L 25.75 -9.859375 C 25.613281 -6.703125 24.5 -4.175781 22.40625 -2.28125 C 20.3125 -0.394531 17.554688 0.570312 14.140625 0.625 C 10.304688 0.6875 7.25 -0.550781 4.96875 -3.09375 C 2.6875 -5.644531 1.507812 -9.128906 1.4375 -13.546875 C 1.363281 -18.015625 2.429688 -21.5625 4.640625 -24.1875 C 6.859375 -26.820312 9.910156 -28.171875 13.796875 -28.234375 C 17.054688 -28.285156 19.742188 -27.460938 21.859375 -25.765625 C 23.984375 -24.066406 25.191406 -21.691406 25.484375 -18.640625 Z M 20.0625 -18.5625 "/></g></g></g><g fill="#f6e7d8" fill-opacity="1"><g transform="translate(2856.262874, 372.908545)"><g><path d="M 19.375 -3.765625 L 9.09375 -4.71875 L 6.734375 0.625 L 0.984375 0.09375 L 13.28125 -26.4375 L 19.484375 -25.859375 L 26.4375 2.453125 L 20.671875 1.921875 Z M 18.25 -8.625 L 15.703125 -19.671875 L 11.109375 -9.296875 Z M 18.25 -8.625 "/></g></g></g><g fill="#f6e7d8" fill-opacity="1"><g transform="translate(2896.396968, 377.36028)"><g><path d="M 19.21875 -0.921875 C 19.363281 -1.640625 19.488281 -2.207031 19.59375 -2.625 C 19.695312 -3.039062 19.78125 -3.410156 19.84375 -3.734375 C 20.070312 -4.859375 19.960938 -5.734375 19.515625 -6.359375 C 19.078125 -6.984375 18.265625 -7.421875 17.078125 -7.671875 L 10.703125 -8.96875 L 8.515625 1.75 L 2.953125 0.609375 L 8.484375 -26.390625 L 22.953125 -23.4375 C 24.066406 -23.207031 25.03125 -22.84375 25.84375 -22.34375 C 26.65625 -21.84375 27.269531 -21.289062 27.6875 -20.6875 C 28.101562 -20.082031 28.414062 -19.410156 28.625 -18.671875 C 28.832031 -17.941406 28.929688 -17.253906 28.921875 -16.609375 C 28.910156 -15.960938 28.835938 -15.3125 28.703125 -14.65625 C 28.035156 -11.375 26.066406 -9.460938 22.796875 -8.921875 C 23.242188 -8.597656 23.59375 -8.347656 23.84375 -8.171875 C 24.09375 -7.992188 24.34375 -7.753906 24.59375 -7.453125 C 24.84375 -7.160156 25.019531 -6.914062 25.125 -6.71875 C 25.226562 -6.53125 25.316406 -6.21875 25.390625 -5.78125 C 25.472656 -5.34375 25.503906 -4.957031 25.484375 -4.625 C 25.472656 -4.289062 25.421875 -3.757812 25.328125 -3.03125 C 25.242188 -2.3125 25.140625 -1.628906 25.015625 -0.984375 C 24.898438 -0.335938 24.742188 0.546875 24.546875 1.671875 C 24.421875 2.265625 24.414062 2.738281 24.53125 3.09375 C 24.644531 3.457031 24.894531 3.8125 25.28125 4.15625 L 25.078125 5.140625 L 19.109375 3.90625 C 18.878906 3.207031 18.773438 2.546875 18.796875 1.921875 C 18.816406 1.304688 18.957031 0.359375 19.21875 -0.921875 Z M 23.03125 -14.984375 C 23.175781 -15.703125 23.207031 -16.316406 23.125 -16.828125 C 23.039062 -17.335938 22.828125 -17.75 22.484375 -18.0625 C 22.148438 -18.375 21.78125 -18.613281 21.375 -18.78125 C 20.96875 -18.945312 20.4375 -19.097656 19.78125 -19.234375 L 13.09375 -20.59375 L 11.65625 -13.578125 L 18.34375 -12.21875 C 18.988281 -12.082031 19.53125 -12.007812 19.96875 -12 C 20.414062 -11.988281 20.847656 -12.0625 21.265625 -12.21875 C 21.691406 -12.382812 22.050781 -12.695312 22.34375 -13.15625 C 22.644531 -13.613281 22.875 -14.222656 23.03125 -14.984375 Z M 23.03125 -14.984375 "/></g></g></g><g fill="#f6e7d8" fill-opacity="1"><g transform="translate(2935.806089, 386.163861)"><g><path d="M 19.203125 1.1875 C 19.429688 0.476562 19.613281 -0.0703125 19.75 -0.46875 C 19.894531 -0.875 20.019531 -1.234375 20.125 -1.546875 C 20.46875 -2.640625 20.457031 -3.519531 20.09375 -4.1875 C 19.726562 -4.851562 18.96875 -5.375 17.8125 -5.75 L 11.609375 -7.75 L 8.265625 2.65625 L 2.875 0.921875 L 11.3125 -25.3125 L 25.359375 -20.78125 C 26.441406 -20.4375 27.359375 -19.972656 28.109375 -19.390625 C 28.867188 -18.804688 29.421875 -18.191406 29.765625 -17.546875 C 30.117188 -16.898438 30.359375 -16.203125 30.484375 -15.453125 C 30.617188 -14.703125 30.644531 -14 30.5625 -13.34375 C 30.476562 -12.695312 30.332031 -12.054688 30.125 -11.421875 C 29.101562 -8.242188 26.941406 -6.5625 23.640625 -6.375 C 24.035156 -6 24.347656 -5.707031 24.578125 -5.5 C 24.816406 -5.300781 25.046875 -5.039062 25.265625 -4.71875 C 25.484375 -4.394531 25.632812 -4.132812 25.71875 -3.9375 C 25.800781 -3.75 25.851562 -3.429688 25.875 -2.984375 C 25.90625 -2.535156 25.894531 -2.144531 25.84375 -1.8125 C 25.789062 -1.488281 25.679688 -0.96875 25.515625 -0.25 C 25.359375 0.457031 25.179688 1.117188 24.984375 1.734375 C 24.796875 2.359375 24.539062 3.226562 24.21875 4.34375 C 24.039062 4.914062 23.984375 5.382812 24.046875 5.75 C 24.109375 6.125 24.316406 6.503906 24.671875 6.890625 L 24.359375 7.84375 L 18.5625 5.96875 C 18.425781 5.25 18.398438 4.582031 18.484375 3.96875 C 18.566406 3.351562 18.804688 2.425781 19.203125 1.1875 Z M 24.515625 -12.390625 C 24.742188 -13.085938 24.84375 -13.691406 24.8125 -14.203125 C 24.789062 -14.710938 24.625 -15.144531 24.3125 -15.5 C 24.007812 -15.851562 23.664062 -16.132812 23.28125 -16.34375 C 22.894531 -16.550781 22.382812 -16.757812 21.75 -16.96875 L 15.25 -19.0625 L 13.0625 -12.234375 L 19.5625 -10.140625 C 20.1875 -9.941406 20.71875 -9.8125 21.15625 -9.75 C 21.601562 -9.695312 22.046875 -9.726562 22.484375 -9.84375 C 22.929688 -9.957031 23.320312 -10.222656 23.65625 -10.640625 C 24 -11.066406 24.285156 -11.648438 24.515625 -12.390625 Z M 24.515625 -12.390625 "/></g></g></g><g fill="#f6e7d8" fill-opacity="1"><g transform="translate(2974.033078, 399.260306)"><g><path d="M 12.734375 -7.328125 L 9.84375 -0.828125 L 23.46875 5.21875 L 21.546875 9.5625 L 2.734375 1.21875 L 13.921875 -23.96875 L 32.125 -15.890625 L 30.203125 -11.546875 L 17.1875 -17.328125 L 14.65625 -11.640625 L 26.6875 -6.296875 L 24.765625 -1.984375 Z M 12.734375 -7.328125 "/></g></g></g><g fill="#f6e7d8" fill-opacity="1"><g transform="translate(3008.801806, 415.405839)"><g><path d="M 18.515625 5.21875 C 18.890625 4.570312 19.1875 4.066406 19.40625 3.703125 C 19.632812 3.347656 19.832031 3.03125 20 2.75 C 20.570312 1.757812 20.75 0.894531 20.53125 0.15625 C 20.320312 -0.582031 19.691406 -1.253906 18.640625 -1.859375 L 13 -5.125 L 7.515625 4.34375 L 2.609375 1.515625 L 16.40625 -22.34375 L 29.1875 -14.953125 C 30.164062 -14.390625 30.960938 -13.738281 31.578125 -13 C 32.191406 -12.269531 32.601562 -11.550781 32.8125 -10.84375 C 33.019531 -10.132812 33.101562 -9.398438 33.0625 -8.640625 C 33.03125 -7.890625 32.90625 -7.203125 32.6875 -6.578125 C 32.476562 -5.960938 32.207031 -5.367188 31.875 -4.796875 C 30.195312 -1.898438 27.722656 -0.707031 24.453125 -1.21875 C 24.773438 -0.769531 25.023438 -0.421875 25.203125 -0.171875 C 25.378906 0.0664062 25.539062 0.363281 25.6875 0.71875 C 25.84375 1.082031 25.9375 1.367188 25.96875 1.578125 C 26.007812 1.796875 25.992188 2.125 25.921875 2.5625 C 25.859375 3 25.765625 3.375 25.640625 3.6875 C 25.515625 4 25.296875 4.484375 24.984375 5.140625 C 24.679688 5.804688 24.375 6.421875 24.0625 6.984375 C 23.75 7.554688 23.3125 8.351562 22.75 9.375 C 22.445312 9.894531 22.289062 10.34375 22.28125 10.71875 C 22.28125 11.09375 22.40625 11.503906 22.65625 11.953125 L 22.15625 12.8125 L 16.875 9.765625 C 16.894531 9.023438 17.007812 8.363281 17.21875 7.78125 C 17.4375 7.195312 17.867188 6.34375 18.515625 5.21875 Z M 26.578125 -6.921875 C 26.953125 -7.554688 27.179688 -8.125 27.265625 -8.625 C 27.347656 -9.132812 27.273438 -9.59375 27.046875 -10 C 26.828125 -10.40625 26.550781 -10.753906 26.21875 -11.046875 C 25.882812 -11.335938 25.425781 -11.648438 24.84375 -11.984375 L 18.9375 -15.40625 L 15.34375 -9.1875 L 21.25 -5.765625 C 21.820312 -5.429688 22.316406 -5.191406 22.734375 -5.046875 C 23.160156 -4.898438 23.601562 -4.835938 24.0625 -4.859375 C 24.519531 -4.878906 24.957031 -5.0625 25.375 -5.40625 C 25.789062 -5.75 26.191406 -6.253906 26.578125 -6.921875 Z M 26.578125 -6.921875 "/></g></g></g><g fill="#f6e7d8" fill-opacity="1"><g transform="translate(3043.392924, 436.293386)"><g><path d="M 14 -4.46875 L 9.796875 1.28125 L 21.828125 10.078125 L 19.03125 13.90625 L 2.40625 1.765625 L 18.671875 -20.484375 L 34.765625 -8.734375 L 31.953125 -4.90625 L 20.453125 -13.3125 L 16.78125 -8.28125 L 27.40625 -0.515625 L 24.625 3.296875 Z M 14 -4.46875 "/></g></g></g><g fill="#f6e7d8" fill-opacity="1"><g transform="translate(2505.960461, 851.548165)"><g><path d="M 382.3125 81.042969 C 384.433594 82.742188 386.554688 84.4375 389.101562 85.289062 C 391.222656 86.5625 392.917969 86.984375 394.191406 86.984375 C 395.890625 86.984375 397.160156 86.5625 397.160156 85.710938 C 397.160156 84.863281 395.890625 82.742188 393.765625 78.5 C 390.371094 71.710938 387.828125 64.921875 386.128906 57.707031 C 384.433594 50.492188 383.582031 42.433594 384.007812 33.519531 C 384.007812 17.398438 388.25 -3.820312 396.3125 -29.703125 C 403.949219 -55.160156 416.257812 -89.53125 433.230469 -133.234375 C 437.472656 -144.691406 441.714844 -154.875 445.109375 -163.785156 L 454.019531 -187.546875 C 458.265625 -200.277344 461.234375 -210.460938 462.929688 -218.101562 C 464.628906 -225.738281 465.476562 -232.949219 465.902344 -240.589844 C 465.902344 -243.984375 466.324219 -247.378906 466.324219 -250.773438 C 466.324219 -258.410156 465.476562 -264.773438 464.203125 -269.867188 C 462.082031 -276.230469 457.839844 -282.597656 451.898438 -289.386719 C 441.714844 -298.71875 431.957031 -304.238281 422.195312 -306.78125 C 412.4375 -308.480469 402.253906 -307.207031 391.644531 -302.113281 C 379.765625 -296.175781 364.914062 -283.019531 347.09375 -262.230469 C 328.847656 -241.4375 311.449219 -217.25 294.476562 -189.671875 C 290.65625 -183.730469 287.261719 -179.0625 284.71875 -174.820312 C 282.171875 -170.574219 280.472656 -168.878906 280.472656 -168.878906 C 280.472656 -168.878906 280.472656 -171 280.898438 -174.394531 C 280.898438 -177.789062 281.324219 -181.609375 282.171875 -186.277344 C 283.867188 -198.15625 284.292969 -210.039062 283.445312 -221.917969 C 282.597656 -233.375 280.472656 -241.4375 277.929688 -246.527344 C 275.382812 -250.773438 270.714844 -255.441406 264.773438 -260.53125 C 258.835938 -265.625 253.316406 -269.019531 248.226562 -270.714844 C 245.679688 -271.5625 243.558594 -271.5625 241.863281 -271.5625 C 239.738281 -271.140625 237.195312 -270.289062 233.800781 -269.019531 C 227.011719 -265.625 216.828125 -256.710938 204.097656 -242.285156 C 190.941406 -227.011719 179.488281 -211.734375 169.726562 -196.035156 C 167.605469 -192.640625 165.910156 -190.09375 164.636719 -188.398438 C 162.9375 -186.277344 162.089844 -185.425781 162.089844 -185.425781 C 162.089844 -185.425781 162.515625 -188.398438 163.363281 -193.914062 C 164.210938 -199.003906 165.058594 -205.792969 166.757812 -213.433594 C 168.878906 -224.039062 170.574219 -233.375 171.425781 -241.4375 C 172.273438 -249.074219 172.699219 -259.683594 172.699219 -273.261719 C 172.699219 -288.535156 172.273438 -298.296875 171.847656 -302.964844 C 171.425781 -307.207031 170.152344 -312.296875 168.03125 -317.390625 C 166.332031 -320.359375 164.636719 -323.753906 162.089844 -327.148438 C 159.542969 -330.542969 156.996094 -333.089844 155.300781 -335.210938 C 141.296875 -347.941406 128.144531 -354.304688 115.839844 -354.304688 C 114.140625 -354.304688 112.445312 -353.882812 111.171875 -353.882812 C 97.167969 -352.183594 81.042969 -342 62.800781 -323.332031 C 43.28125 -303.8125 28.003906 -282.171875 16.972656 -258.410156 C 5.515625 -234.648438 -0.847656 -210.460938 -1.699219 -186.277344 C -2.121094 -180.757812 -2.121094 -176.09375 -2.121094 -171.847656 C -2.121094 -164.210938 -1.699219 -158.695312 -0.847656 -154.875 C 0.425781 -148.9375 3.820312 -143.84375 9.757812 -139.175781 C 18.246094 -132.386719 22.914062 -129.839844 24.609375 -131.539062 C 25.882812 -133.234375 26.730469 -142.148438 27.582031 -159.121094 C 27.582031 -171.425781 28.003906 -180.335938 28.855469 -186.277344 C 29.703125 -191.792969 30.976562 -198.582031 33.519531 -206.644531 C 36.492188 -216.828125 40.308594 -226.585938 45.402344 -236.769531 C 49.644531 -246.953125 55.160156 -256.289062 61.101562 -265.625 C 72.132812 -282.597656 84.015625 -297.023438 97.167969 -309.328125 C 109.898438 -321.210938 122.203125 -328.847656 133.660156 -331.394531 C 137.054688 -331.816406 139.175781 -331.816406 140.023438 -331.394531 C 140.449219 -330.542969 141.296875 -328 142.996094 -323.753906 C 145.117188 -315.269531 145.542969 -300.839844 143.84375 -280.472656 C 142.148438 -260.105469 139.175781 -238.042969 134.507812 -215.128906 C 127.71875 -183.730469 122.203125 -157.421875 117.535156 -136.207031 C 112.445312 -114.992188 107.351562 -95.894531 102.683594 -79.347656 C 99.714844 -68.316406 97.59375 -60.675781 96.746094 -55.585938 C 95.894531 -50.492188 95.472656 -47.097656 96.320312 -46.25 C 97.59375 -44.128906 101.414062 -40.734375 108.203125 -36.492188 C 114.992188 -31.398438 118.808594 -29.277344 120.507812 -29.277344 C 121.355469 -29.277344 122.203125 -30.550781 123.902344 -33.945312 C 125.597656 -36.492188 127.296875 -40.308594 128.992188 -44.554688 C 133.660156 -56.859375 139.601562 -70.011719 146.8125 -84.4375 C 153.601562 -98.015625 161.242188 -112.019531 169.304688 -126.445312 C 183.730469 -152.753906 199.003906 -176.515625 214.28125 -198.582031 C 229.554688 -220.222656 241.4375 -234.222656 250.773438 -240.589844 C 252.46875 -241.863281 254.167969 -243.132812 255.441406 -243.984375 L 254.167969 -221.070312 C 253.316406 -205.792969 250.773438 -187.972656 247.378906 -166.757812 C 243.558594 -145.117188 238.46875 -121.78125 232.527344 -96.746094 C 228.707031 -81.46875 226.160156 -70.859375 225.3125 -64.496094 C 224.039062 -57.707031 224.039062 -53.886719 224.890625 -52.617188 C 226.160156 -50.492188 229.980469 -47.097656 236.769531 -42.433594 C 243.558594 -37.765625 247.800781 -35.644531 249.5 -35.644531 C 249.921875 -35.644531 252.46875 -39.460938 257.136719 -47.523438 C 261.378906 -55.585938 266.472656 -65.34375 272.414062 -76.800781 C 288.535156 -109.898438 302.964844 -136.628906 315.691406 -157.421875 C 327.574219 -177.789062 341.578125 -198.582031 357.277344 -219.796875 C 370.855469 -238.042969 384.433594 -252.894531 397.585938 -264.773438 C 410.316406 -275.808594 421.347656 -282.597656 430.257812 -284.292969 L 437.898438 -285.566406 C 437.472656 -275.382812 437.046875 -267.746094 437.046875 -262.652344 C 436.199219 -253.316406 435.351562 -244.832031 434.078125 -237.617188 C 432.378906 -229.980469 428.984375 -218.523438 423.46875 -202.824219 L 414.558594 -179.0625 C 411.164062 -169.726562 406.921875 -159.121094 402.253906 -146.8125 C 395.039062 -128.570312 389.101562 -112.445312 384.007812 -98.867188 C 378.917969 -85.289062 374.671875 -73.40625 371.277344 -63.222656 C 364.488281 -43.703125 360.246094 -28.855469 358.550781 -17.820312 C 356.425781 -6.789062 355.578125 4.667969 355.578125 16.125 C 355.578125 27.15625 356.003906 34.371094 356.851562 38.613281 C 357.277344 42.855469 358.972656 47.523438 361.519531 53.464844 C 364.488281 61.101562 367.460938 66.617188 370.003906 69.589844 C 372.128906 72.984375 376.371094 76.800781 382.3125 81.042969 Z M 382.3125 81.042969 "/></g></g></g><g fill="#f6e7d8" fill-opacity="1"><g transform="translate(2948.943505, 851.548165)"><g><path d="M 65.769531 -0.425781 C 68.316406 0 71.710938 0 75.105469 0 C 78.921875 0 83.167969 0 87.832031 -0.847656 C 95.472656 -1.699219 102.683594 -3.394531 109.050781 -5.941406 C 120.929688 -10.609375 134.085938 -19.09375 147.664062 -30.976562 C 161.242188 -42.855469 173.121094 -56.011719 183.304688 -70.859375 C 188.398438 -78.074219 193.488281 -87.410156 198.582031 -99.289062 C 203.671875 -110.746094 206.21875 -118.386719 206.21875 -122.628906 C 206.21875 -125.175781 202.398438 -128.992188 195.609375 -134.933594 C 188.820312 -140.875 184.152344 -143.417969 181.609375 -142.996094 C 180.757812 -142.996094 179.488281 -141.722656 178.214844 -139.175781 C 176.515625 -136.628906 175.242188 -133.234375 173.96875 -129.839844 C 169.726562 -118.808594 165.058594 -108.625 159.121094 -98.441406 C 152.753906 -88.257812 145.964844 -78.921875 138.328125 -70.4375 C 123.902344 -54.3125 108.625 -41.582031 92.078125 -32.671875 C 75.105469 -23.335938 59.40625 -19.519531 44.976562 -22.066406 C 40.734375 -22.488281 38.1875 -23.335938 36.914062 -24.609375 C 35.644531 -25.460938 33.945312 -28.429688 32.25 -33.097656 C 29.703125 -39.886719 28.429688 -49.222656 28.855469 -61.949219 C 28.855469 -74.253906 30.550781 -86.5625 33.519531 -98.441406 C 36.492188 -110.746094 40.308594 -123.476562 45.402344 -136.628906 C 50.492188 -149.359375 56.011719 -162.515625 62.375 -175.242188 C 73.832031 -199.003906 86.5625 -220.222656 100.988281 -239.316406 C 114.992188 -258.410156 128.144531 -271.5625 140.875 -278.777344 C 143.417969 -280.472656 145.964844 -281.746094 148.511719 -283.019531 C 151.058594 -283.867188 152.332031 -284.71875 153.179688 -284.71875 C 154.027344 -284.71875 154.027344 -280.898438 153.179688 -273.261719 C 151.90625 -265.199219 150.207031 -257.136719 147.664062 -249.5 C 145.964844 -243.558594 144.691406 -239.316406 144.691406 -237.195312 C 144.269531 -234.648438 144.691406 -232.949219 145.964844 -232.101562 C 147.664062 -229.554688 151.480469 -226.585938 157.847656 -222.34375 C 164.210938 -218.101562 168.03125 -216.402344 169.726562 -216.402344 C 171.425781 -216.402344 173.546875 -221.496094 176.941406 -232.101562 C 180.335938 -242.285156 182.03125 -251.195312 182.882812 -258.835938 C 183.304688 -267.320312 182.03125 -274.957031 178.636719 -280.898438 C 175.242188 -286.839844 169.304688 -292.78125 160.816406 -298.71875 C 152.332031 -304.238281 145.117188 -307.207031 138.753906 -307.632812 C 137.902344 -307.632812 137.480469 -308.054688 136.628906 -308.054688 C 130.691406 -307.632812 123.902344 -305.507812 116.261719 -302.113281 C 103.109375 -295.324219 89.105469 -282.171875 74.253906 -262.230469 C 58.980469 -241.863281 44.976562 -219.371094 33.097656 -194.761719 C 26.308594 -181.183594 20.792969 -167.605469 15.699219 -154.027344 C 10.609375 -139.601562 6.363281 -126.023438 3.820312 -113.292969 C 1.273438 -103.957031 0 -92.925781 0 -80.621094 L 0 -75.527344 C 0 -65.769531 0.425781 -58.132812 2.121094 -53.039062 C 5.515625 -40.734375 14.003906 -29.277344 26.730469 -19.09375 C 39.460938 -8.0625 52.617188 -2.121094 65.769531 -0.425781 Z M 65.769531 -0.425781 "/></g></g></g><g fill="#f6e7d8" fill-opacity="1"><g transform="translate(2547.433226, 872.086338)"><g><path d="M 11.140625 4.53125 L 2.5625 7.46875 L 0.859375 2.515625 L 24.921875 -5.734375 L 28.5625 4.875 C 29.414062 7.382812 29.429688 9.53125 28.609375 11.3125 C 27.785156 13.09375 26.160156 14.394531 23.734375 15.21875 C 21.296875 16.0625 19.125 16.066406 17.21875 15.234375 C 15.320312 14.410156 14 12.898438 13.25 10.703125 Z M 15.296875 3.109375 L 16.875 7.71875 C 17.320312 9.039062 17.9375 9.914062 18.71875 10.34375 C 19.507812 10.769531 20.519531 10.773438 21.75 10.359375 C 23 9.929688 23.804688 9.300781 24.171875 8.46875 C 24.546875 7.644531 24.507812 6.570312 24.0625 5.25 L 22.484375 0.640625 Z M 15.296875 3.109375 "/></g></g></g><g fill="#f6e7d8" fill-opacity="1"><g transform="translate(2560.524137, 907.406724)"><g><path d="M 26.390625 -3.875 L 7.4375 5.3125 L 12.734375 16.265625 L 8.796875 18.171875 L 1.21875 2.515625 L 24.109375 -8.578125 Z M 26.390625 -3.875 "/></g></g></g><g fill="#f6e7d8" fill-opacity="1"><g transform="translate(2576.808896, 939.236249)"><g><path d="M 13.78125 11.875 L 8.59375 3.875 L 3.390625 5.234375 L 0.5 0.765625 L 26.765625 -5.5 L 29.890625 -0.65625 L 13.34375 20.5625 L 10.421875 16.078125 Z M 16.703125 8.296875 L 23.25 0.125 L 13.09375 2.734375 Z M 16.703125 8.296875 "/></g></g></g><g fill="#f6e7d8" fill-opacity="1"><g transform="translate(2599.193627, 972.013244)"><g><path d="M 11.5625 13.546875 L 18.296875 -5.625 L 4.921875 5.78125 L 1.53125 1.796875 L 20.890625 -14.703125 L 24.390625 -10.609375 L 17.75 8.265625 L 30.921875 -2.953125 L 34.328125 1.046875 L 14.96875 17.546875 Z M 11.5625 13.546875 "/></g></g></g><g fill="#f6e7d8" fill-opacity="1"><g transform="translate(2625.663214, 1001.547431)"><g><path d="M 13.28125 -2.734375 L 8.859375 2.140625 L 19.046875 11.390625 L 16.109375 14.625 L 2.03125 1.84375 L 19.125 -16.984375 L 32.75 -4.625 L 29.8125 -1.390625 L 20.078125 -10.21875 L 16.21875 -5.96875 L 25.21875 2.203125 L 22.28125 5.4375 Z M 13.28125 -2.734375 "/></g></g></g><g fill="#f6e7d8" fill-opacity="1"><g transform="translate(2654.170149, 1026.11977)"><g><path d="M 6.6875 5.765625 C 6.082031 5.328125 5.535156 4.847656 5.046875 4.328125 C 4.554688 3.804688 4.117188 3.191406 3.734375 2.484375 C 3.347656 1.785156 3.109375 1.054688 3.015625 0.296875 C 2.921875 -0.460938 3 -1.3125 3.25 -2.25 C 3.507812 -3.195312 3.984375 -4.15625 4.671875 -5.125 L 6.140625 -7.1875 L 10.40625 -4.15625 L 8.984375 -2.15625 C 8.304688 -1.21875 7.992188 -0.410156 8.046875 0.265625 C 8.109375 0.941406 8.546875 1.570312 9.359375 2.15625 C 10.109375 2.6875 10.828125 2.890625 11.515625 2.765625 C 12.210938 2.640625 12.835938 2.1875 13.390625 1.40625 L 24.3125 -13.921875 L 28.5625 -10.875 L 17.640625 4.453125 C 16.265625 6.378906 14.625 7.453125 12.71875 7.671875 C 10.8125 7.898438 8.800781 7.265625 6.6875 5.765625 Z M 6.6875 5.765625 "/></g></g></g><g fill="#f6e7d8" fill-opacity="1"><g transform="translate(2682.096729, 1045.175064)"><g><path d="M 17.78125 3.859375 L 9.40625 -0.6875 L 5.46875 2.984375 L 0.796875 0.4375 L 20.890625 -17.578125 L 25.96875 -14.828125 L 21.53125 11.71875 L 16.828125 9.15625 Z M 18.640625 -0.671875 L 20.5 -10.984375 L 12.828125 -3.84375 Z M 18.640625 -0.671875 "/></g></g></g><g fill="#f6e7d8" fill-opacity="1"><g transform="translate(2717.402797, 1063.310137)"><g><path d="M 16.625 6.40625 L 13.40625 -13.671875 L 7.09375 2.734375 L 2.203125 0.84375 L 11.34375 -22.890625 L 16.375 -20.953125 L 19.546875 -1.1875 L 25.765625 -17.328125 L 30.65625 -15.453125 L 21.515625 8.28125 Z M 16.625 6.40625 "/></g></g></g><g fill="#f6e7d8" fill-opacity="1"><g transform="translate(2754.773139, 1076.683946)"><g><path d="M 2.609375 0.625 L 8.578125 -24.109375 L 18.234375 -21.765625 C 20.117188 -21.316406 21.625 -20.710938 22.75 -19.953125 C 23.882812 -19.203125 24.753906 -18.234375 25.359375 -17.046875 C 26.785156 -14.140625 27.023438 -10.726562 26.078125 -6.8125 C 25.117188 -2.84375 23.351562 0.0703125 20.78125 1.9375 C 19.695312 2.75 18.476562 3.234375 17.125 3.390625 C 15.769531 3.554688 14.148438 3.414062 12.265625 2.96875 Z M 8.71875 -2.390625 L 13.296875 -1.28125 C 17.109375 -0.363281 19.660156 -2.597656 20.953125 -7.984375 C 22.265625 -13.410156 21.015625 -16.582031 17.203125 -17.5 L 12.625 -18.609375 Z M 8.71875 -2.390625 "/></g></g></g><g fill="#f6e7d8" fill-opacity="1"><g transform="translate(2793.596234, 1085.11527)"><g><path d="M 3.453125 -5.3125 C 2.671875 -7.414062 2.410156 -9.742188 2.671875 -12.296875 C 2.929688 -14.859375 3.660156 -17.085938 4.859375 -18.984375 C 6.054688 -20.890625 7.632812 -22.316406 9.59375 -23.265625 C 11.5625 -24.210938 13.75 -24.5625 16.15625 -24.3125 C 19.832031 -23.9375 22.664062 -22.398438 24.65625 -19.703125 C 26.644531 -17.003906 27.429688 -13.644531 27.015625 -9.625 C 26.828125 -7.8125 26.367188 -6.140625 25.640625 -4.609375 C 24.921875 -3.078125 23.984375 -1.773438 22.828125 -0.703125 C 21.671875 0.359375 20.285156 1.15625 18.671875 1.6875 C 17.066406 2.21875 15.332031 2.382812 13.46875 2.1875 C 11.039062 1.9375 8.957031 1.148438 7.21875 -0.171875 C 5.488281 -1.503906 4.234375 -3.21875 3.453125 -5.3125 Z M 15.734375 -19.890625 C 13.640625 -20.097656 11.875 -19.460938 10.4375 -17.984375 C 9 -16.503906 8.144531 -14.4375 7.875 -11.78125 C 7.601562 -9.132812 8.019531 -6.941406 9.125 -5.203125 C 10.226562 -3.460938 11.828125 -2.488281 13.921875 -2.28125 C 16.003906 -2.0625 17.773438 -2.679688 19.234375 -4.140625 C 20.691406 -5.597656 21.550781 -7.613281 21.8125 -10.1875 C 22.09375 -12.925781 21.6875 -15.171875 20.59375 -16.921875 C 19.5 -18.679688 17.878906 -19.671875 15.734375 -19.890625 Z M 15.734375 -19.890625 "/></g></g></g><g fill="#f6e7d8" fill-opacity="1"><g transform="translate(2834.8906, 1088.12054)"><g/></g></g><g fill="#f6e7d8" fill-opacity="1"><g transform="translate(2858.818413, 1087.616914)"><g><path d="M 19.15625 -19.828125 L 14.3125 -19.3125 C 14.09375 -20.59375 13.5 -21.519531 12.53125 -22.09375 C 11.5625 -22.664062 10.25 -22.863281 8.59375 -22.6875 C 7.257812 -22.550781 6.222656 -22.160156 5.484375 -21.515625 C 4.753906 -20.867188 4.441406 -20.0625 4.546875 -19.09375 C 4.648438 -18.1875 5.054688 -17.539062 5.765625 -17.15625 C 6.484375 -16.769531 7.796875 -16.488281 9.703125 -16.3125 L 13.71875 -15.984375 C 16.113281 -15.773438 17.898438 -15.175781 19.078125 -14.1875 C 20.265625 -13.195312 20.960938 -11.710938 21.171875 -9.734375 C 21.453125 -7.171875 20.75 -5.066406 19.0625 -3.421875 C 17.382812 -1.785156 14.914062 -0.789062 11.65625 -0.4375 C 8.4375 -0.09375 5.851562 -0.539062 3.90625 -1.78125 C 1.957031 -3.03125 0.757812 -4.992188 0.3125 -7.671875 L 5.359375 -8.203125 C 5.585938 -6.867188 6.226562 -5.894531 7.28125 -5.28125 C 8.332031 -4.664062 9.742188 -4.453125 11.515625 -4.640625 C 13.085938 -4.804688 14.296875 -5.234375 15.140625 -5.921875 C 15.992188 -6.617188 16.363281 -7.5 16.25 -8.5625 C 16.132812 -9.582031 15.691406 -10.328125 14.921875 -10.796875 C 14.148438 -11.273438 12.878906 -11.59375 11.109375 -11.75 L 7.484375 -12.0625 C 4.867188 -12.28125 2.960938 -12.851562 1.765625 -13.78125 C 0.566406 -14.707031 -0.132812 -16.144531 -0.34375 -18.09375 C -0.601562 -20.550781 0.0234375 -22.550781 1.546875 -24.09375 C 3.078125 -25.632812 5.359375 -26.566406 8.390625 -26.890625 C 8.992188 -26.953125 9.585938 -26.984375 10.171875 -26.984375 C 10.765625 -26.992188 11.40625 -26.957031 12.09375 -26.875 C 12.789062 -26.789062 13.441406 -26.65625 14.046875 -26.46875 C 14.660156 -26.28125 15.257812 -26.003906 15.84375 -25.640625 C 16.425781 -25.273438 16.941406 -24.832031 17.390625 -24.3125 C 17.835938 -23.800781 18.21875 -23.160156 18.53125 -22.390625 C 18.84375 -21.628906 19.050781 -20.773438 19.15625 -19.828125 Z M 19.15625 -19.828125 "/></g></g></g><g fill="#f6e7d8" fill-opacity="1"><g transform="translate(2896.207089, 1082.716933)"><g><path d="M 5.28125 -12.484375 L 6.78125 -6.09375 L 20.1875 -9.25 L 21.1875 -4.984375 L 2.671875 -0.625 L -3.140625 -25.390625 L 14.765625 -29.59375 L 15.765625 -25.328125 L 2.96875 -22.328125 L 4.28125 -16.734375 L 16.125 -19.515625 L 17.125 -15.265625 Z M 5.28125 -12.484375 "/></g></g></g><g fill="#f6e7d8" fill-opacity="1"><g transform="translate(2932.74354, 1073.249701)"><g><path d="M 12.21875 -3.71875 C 11.351562 -3.394531 10.476562 -3.148438 9.59375 -2.984375 C 8.71875 -2.828125 7.773438 -2.785156 6.765625 -2.859375 C 5.765625 -2.941406 4.832031 -3.164062 3.96875 -3.53125 C 3.113281 -3.90625 2.296875 -4.519531 1.515625 -5.375 C 0.734375 -6.238281 0.101562 -7.3125 -0.375 -8.59375 L -6.4375 -24.765625 L -1.53125 -26.59375 L 4.53125 -10.421875 C 5.0625 -8.984375 5.820312 -8.0625 6.8125 -7.65625 C 7.8125 -7.25 9.085938 -7.335938 10.640625 -7.921875 C 12.160156 -8.492188 13.164062 -9.265625 13.65625 -10.234375 C 14.15625 -11.203125 14.140625 -12.398438 13.609375 -13.828125 L 7.546875 -30 L 12.421875 -31.828125 L 18.484375 -15.65625 C 18.960938 -14.375 19.1875 -13.148438 19.15625 -11.984375 C 19.132812 -10.828125 18.921875 -9.828125 18.515625 -8.984375 C 18.117188 -8.140625 17.566406 -7.359375 16.859375 -6.640625 C 16.160156 -5.921875 15.425781 -5.332031 14.65625 -4.875 C 13.894531 -4.425781 13.082031 -4.039062 12.21875 -3.71875 Z M 12.21875 -3.71875 "/></g></g></g><g fill="#f6e7d8" fill-opacity="1"><g transform="translate(2969.238835, 1058.356974)"><g/></g></g><g fill="#f6e7d8" fill-opacity="1"><g transform="translate(2990.435192, 1047.317363)"><g><path d="M 0.78125 -13.4375 L 6.609375 -4.15625 L 2.1875 -1.375 L -11.34375 -22.921875 L 3.78125 -32.421875 L 6.109375 -28.71875 L -4.59375 -22 L -1.53125 -17.125 L 7.890625 -23.03125 L 10.203125 -19.34375 Z M 0.78125 -13.4375 "/></g></g></g><g fill="#f6e7d8" fill-opacity="1"><g transform="translate(3020.296516, 1027.651561)"><g><path d="M 10.375 -7.453125 C 9.65625 -6.867188 8.90625 -6.359375 8.125 -5.921875 C 7.34375 -5.484375 6.460938 -5.140625 5.484375 -4.890625 C 4.503906 -4.640625 3.550781 -4.550781 2.625 -4.625 C 1.695312 -4.695312 0.726562 -5.015625 -0.28125 -5.578125 C -1.300781 -6.148438 -2.242188 -6.960938 -3.109375 -8.015625 L -14.03125 -21.390625 L -9.984375 -24.6875 L 0.9375 -11.3125 C 1.90625 -10.125 2.925781 -9.5 4 -9.4375 C 5.082031 -9.382812 6.265625 -9.878906 7.546875 -10.921875 C 8.804688 -11.953125 9.507812 -13.003906 9.65625 -14.078125 C 9.800781 -15.148438 9.394531 -16.273438 8.4375 -17.453125 L -2.484375 -30.828125 L 1.5625 -34.125 L 12.484375 -20.75 C 13.347656 -19.695312 13.953125 -18.613281 14.296875 -17.5 C 14.648438 -16.382812 14.769531 -15.363281 14.65625 -14.4375 C 14.539062 -13.519531 14.265625 -12.609375 13.828125 -11.703125 C 13.398438 -10.804688 12.894531 -10.019531 12.3125 -9.34375 C 11.726562 -8.664062 11.082031 -8.035156 10.375 -7.453125 Z M 10.375 -7.453125 "/></g></g></g><g fill="#f6e7d8" fill-opacity="1"><g transform="translate(3050.324826, 1001.802092)"><g><path d="M -5.96875 -24.265625 L 9.28125 -9.734375 L 5.640625 -5.921875 L -9.609375 -20.453125 L -14.921875 -14.875 L -18.078125 -17.890625 L -4.015625 -32.625 L -0.859375 -29.609375 Z M -5.96875 -24.265625 "/></g></g></g><g fill="#f6e7d8" fill-opacity="1"><g transform="translate(3074.432729, 975.397773)"><g><path d="M 8.234375 -9.78125 C 7.679688 -9.03125 7.078125 -8.347656 6.421875 -7.734375 C 5.773438 -7.117188 5.003906 -6.566406 4.109375 -6.078125 C 3.222656 -5.597656 2.320312 -5.28125 1.40625 -5.125 C 0.488281 -4.96875 -0.53125 -5.035156 -1.65625 -5.328125 C -2.78125 -5.628906 -3.890625 -6.1875 -4.984375 -7 L -18.859375 -17.28125 L -15.734375 -21.484375 L -1.859375 -11.203125 C -0.628906 -10.296875 0.507812 -9.941406 1.5625 -10.140625 C 2.613281 -10.335938 3.632812 -11.101562 4.625 -12.4375 C 5.582031 -13.738281 6.003906 -14.925781 5.890625 -16 C 5.773438 -17.082031 5.109375 -18.078125 3.890625 -18.984375 L -9.984375 -29.265625 L -6.875 -33.46875 L 7 -23.1875 C 8.09375 -22.375 8.941406 -21.472656 9.546875 -20.484375 C 10.160156 -19.492188 10.523438 -18.535156 10.640625 -17.609375 C 10.765625 -16.679688 10.726562 -15.726562 10.53125 -14.75 C 10.34375 -13.769531 10.046875 -12.878906 9.640625 -12.078125 C 9.242188 -11.285156 8.773438 -10.519531 8.234375 -9.78125 Z M 8.234375 -9.78125 "/></g></g></g><g fill="#f6e7d8" fill-opacity="1"><g transform="translate(3097.281915, 942.942962)"><g><path d="M 4.515625 -17.171875 C 3.910156 -17.503906 3.441406 -17.769531 3.109375 -17.96875 C 2.773438 -18.175781 2.476562 -18.351562 2.21875 -18.5 C 1.28125 -19.007812 0.476562 -19.160156 -0.1875 -18.953125 C -0.863281 -18.742188 -1.472656 -18.144531 -2.015625 -17.15625 L -4.9375 -11.90625 L 3.890625 -7.015625 L 1.359375 -2.453125 L -20.890625 -14.796875 L -14.296875 -26.6875 C -13.785156 -27.601562 -13.195312 -28.347656 -12.53125 -28.921875 C -11.875 -29.503906 -11.21875 -29.894531 -10.5625 -30.09375 C -9.914062 -30.300781 -9.238281 -30.394531 -8.53125 -30.375 C -7.820312 -30.351562 -7.179688 -30.25 -6.609375 -30.0625 C -6.035156 -29.875 -5.484375 -29.628906 -4.953125 -29.328125 C -2.253906 -27.835938 -1.113281 -25.578125 -1.53125 -22.546875 C -1.125 -22.859375 -0.804688 -23.097656 -0.578125 -23.265625 C -0.359375 -23.429688 -0.0859375 -23.585938 0.234375 -23.734375 C 0.566406 -23.878906 0.832031 -23.96875 1.03125 -24 C 1.226562 -24.039062 1.53125 -24.03125 1.9375 -23.96875 C 2.34375 -23.914062 2.6875 -23.832031 2.96875 -23.71875 C 3.257812 -23.613281 3.710938 -23.425781 4.328125 -23.15625 C 4.953125 -22.882812 5.53125 -22.601562 6.0625 -22.3125 C 6.59375 -22.03125 7.332031 -21.644531 8.28125 -21.15625 C 8.769531 -20.882812 9.179688 -20.742188 9.515625 -20.734375 C 9.859375 -20.734375 10.238281 -20.859375 10.65625 -21.109375 L 11.46875 -20.65625 L 8.734375 -15.734375 C 8.054688 -15.742188 7.445312 -15.835938 6.90625 -16.015625 C 6.363281 -16.203125 5.566406 -16.585938 4.515625 -17.171875 Z M -6.828125 -24.40625 C -7.421875 -24.738281 -7.953125 -24.9375 -8.421875 -25 C -8.898438 -25.070312 -9.320312 -25.003906 -9.6875 -24.796875 C -10.050781 -24.597656 -10.363281 -24.335938 -10.625 -24.015625 C -10.894531 -23.703125 -11.179688 -23.273438 -11.484375 -22.734375 L -14.53125 -17.234375 L -8.734375 -14.015625 L -5.6875 -19.515625 C -5.382812 -20.054688 -5.164062 -20.523438 -5.03125 -20.921875 C -4.90625 -21.316406 -4.851562 -21.71875 -4.875 -22.125 C -4.90625 -22.539062 -5.082031 -22.9375 -5.40625 -23.3125 C -5.726562 -23.695312 -6.203125 -24.0625 -6.828125 -24.40625 Z M -6.828125 -24.40625 "/></g></g></g><g fill="#f6e7d8" fill-opacity="1"><g transform="translate(3115.749633, 907.764031)"><g><path d="M -4.203125 -4.734375 C -6.441406 -4.546875 -8.757812 -4.914062 -11.15625 -5.84375 C -13.550781 -6.78125 -15.503906 -8.078125 -17.015625 -9.734375 C -18.535156 -11.398438 -19.488281 -13.304688 -19.875 -15.453125 C -20.257812 -17.597656 -20.015625 -19.800781 -19.140625 -22.0625 C -17.796875 -25.5 -15.554688 -27.816406 -12.421875 -29.015625 C -9.285156 -30.210938 -5.835938 -30.070312 -2.078125 -28.59375 C -0.378906 -27.9375 1.101562 -27.050781 2.375 -25.9375 C 3.65625 -24.832031 4.660156 -23.582031 5.390625 -22.1875 C 6.128906 -20.789062 6.535156 -19.242188 6.609375 -17.546875 C 6.691406 -15.859375 6.390625 -14.140625 5.703125 -12.390625 C 4.816406 -10.109375 3.5 -8.3125 1.75 -7 C 0.0078125 -5.6875 -1.972656 -4.929688 -4.203125 -4.734375 Z M -14.96875 -20.46875 C -15.726562 -18.507812 -15.585938 -16.640625 -14.546875 -14.859375 C -13.503906 -13.078125 -11.738281 -11.695312 -9.25 -10.71875 C -6.78125 -9.757812 -4.554688 -9.582031 -2.578125 -10.1875 C -0.609375 -10.789062 0.753906 -12.070312 1.515625 -14.03125 C 2.273438 -15.976562 2.144531 -17.847656 1.125 -19.640625 C 0.113281 -21.429688 -1.59375 -22.796875 -4 -23.734375 C -6.570312 -24.734375 -8.84375 -24.941406 -10.8125 -24.359375 C -12.789062 -23.773438 -14.175781 -22.476562 -14.96875 -20.46875 Z M -14.96875 -20.46875 "/></g></g></g></svg>