<svg xmlns="http://www.w3.org/2000/svg" xmlns:xlink="http://www.w3.org/1999/xlink" width="3779" zoomAndPan="magnify" viewBox="0 0 2835 2834.999876" height="3779" preserveAspectRatio="xMidYMid meet" version="1.0"><defs><g/><clipPath id="9ef73c043c"><path d="M 654 1128 L 2180 1128 L 2180 2432.570312 L 654 2432.570312 Z M 654 1128 " clip-rule="nonzero"/></clipPath><clipPath id="284582cc9c"><path d="M 408.480469 402.320312 L 2425.980469 402.320312 L 2425.980469 2126 L 408.480469 2126 Z M 408.480469 402.320312 " clip-rule="nonzero"/></clipPath></defs><g clip-path="url(#9ef73c043c)"><path fill="#000000" d="M 1417.230469 2432.242188 C 996.226562 2432.242188 654.941406 2090.945312 654.941406 1669.925781 C 654.941406 1458.425781 741.109375 1267.082031 880.207031 1128.992188 C 818.085938 1227.140625 781.992188 1343.394531 781.992188 1468.125 C 781.992188 1818.980469 1066.410156 2103.382812 1417.230469 2103.382812 C 1768.050781 2103.382812 2052.46875 1818.980469 2052.46875 1468.125 C 2052.46875 1343.394531 2016.375 1227.140625 1954.253906 1128.992188 C 2093.351562 1267.082031 2179.519531 1458.425781 2179.519531 1669.925781 C 2179.519531 2090.945312 1838.234375 2432.242188 1417.230469 2432.242188 " fill-opacity="1" fill-rule="nonzero"/></g><g clip-path="url(#284582cc9c)"><path fill="#f14902" d="M 1417.230469 402.058594 C 860.351562 402.058594 408.921875 853.503906 408.921875 1410.402344 C 408.921875 1690.152344 522.890625 1943.25 706.878906 2125.910156 C 624.71875 1996.089844 576.972656 1842.316406 576.972656 1677.320312 C 576.972656 1213.25 953.175781 837.035156 1417.230469 837.035156 C 1881.285156 837.035156 2257.488281 1213.25 2257.488281 1677.320312 C 2257.488281 1842.316406 2209.738281 1996.089844 2127.578125 2125.910156 C 2311.570312 1943.25 2425.539062 1690.152344 2425.539062 1410.402344 C 2425.539062 853.503906 1974.109375 402.058594 1417.230469 402.058594 " fill-opacity="1" fill-rule="nonzero"/></g><g fill="#f6e7d8" fill-opacity="1"><g transform="translate(889.231836, 818.648004)"><g><path d="M -13.6875 -51.59375 L 15.421875 -11.078125 L 4.71875 -3.390625 L -32.671875 -55.453125 L -16.6875 -66.921875 L 22.484375 -32.3125 L 1.859375 -80.25 L 18 -91.84375 L 55.390625 -39.78125 L 44.6875 -32.09375 L 15.578125 -72.609375 L 35.484375 -25.484375 L 24.75 -17.78125 Z M -13.6875 -51.59375 "/></g></g></g><g fill="#f6e7d8" fill-opacity="1"><g transform="translate(974.468813, 759.924692)"><g><path d="M 32.203125 -32.6875 L 11.21875 -21 L 13.734375 -7.640625 L 2 -1.125 L -9.265625 -68.203125 L 3.40625 -75.265625 L 53.953125 -30.046875 L 42.1875 -23.484375 Z M 23.671875 -40.578125 L 4.234375 -58.40625 L 9.078125 -32.453125 Z M 23.671875 -40.578125 "/></g></g></g><g fill="#f6e7d8" fill-opacity="1"><g transform="translate(1057.541412, 715.770497)"><g><path d="M 10.265625 -62.109375 L 31.140625 -13.328125 L 18.953125 -8.109375 L -1.921875 -56.890625 L -19.75 -49.265625 L -24.09375 -59.40625 L 23.078125 -79.578125 L 27.421875 -69.4375 Z M 10.265625 -62.109375 "/></g></g></g><g fill="#f6e7d8" fill-opacity="1"><g transform="translate(1135.592097, 683.835708)"><g><path d="M 32.6875 -54.484375 C 32.300781 -55.179688 31.941406 -55.765625 31.609375 -56.234375 C 31.273438 -56.710938 30.75 -57.378906 30.03125 -58.234375 C 29.320312 -59.097656 28.550781 -59.78125 27.71875 -60.28125 C 26.894531 -60.789062 25.914062 -61.257812 24.78125 -61.6875 C 23.65625 -62.125 22.359375 -62.316406 20.890625 -62.265625 C 19.421875 -62.222656 17.851562 -61.941406 16.1875 -61.421875 C 11.238281 -59.890625 7.945312 -56.78125 6.3125 -52.09375 C 4.675781 -47.40625 4.90625 -41.6875 7 -34.9375 C 9.070312 -28.25 12.050781 -23.453125 15.9375 -20.546875 C 19.820312 -17.648438 24.191406 -16.953125 29.046875 -18.453125 C 32.953125 -19.660156 35.753906 -21.703125 37.453125 -24.578125 C 39.148438 -27.460938 39.582031 -30.921875 38.75 -34.953125 L 51.0625 -38.765625 C 52.820312 -31.648438 51.976562 -25.300781 48.53125 -19.71875 C 45.082031 -14.132812 39.566406 -10.164062 31.984375 -7.8125 C 23.460938 -5.175781 15.828125 -5.953125 9.078125 -10.140625 C 2.328125 -14.335938 -2.570312 -21.347656 -5.625 -31.171875 C -8.695312 -41.085938 -8.613281 -49.707031 -5.375 -57.03125 C -2.144531 -64.351562 3.789062 -69.351562 12.4375 -72.03125 C 19.675781 -74.269531 26.207031 -74.179688 32.03125 -71.765625 C 37.863281 -69.347656 42.09375 -64.832031 44.71875 -58.21875 Z M 32.6875 -54.484375 "/></g></g></g><g fill="#f6e7d8" fill-opacity="1"><g transform="translate(1225.80765, 657.626125)"><g><path d="M 38.1875 -36.96875 L 13.28125 -32.15625 L 18.796875 -3.640625 L 5.84375 -1.125 L -6.328125 -64.046875 L 6.625 -66.5625 L 11.1875 -42.984375 L 36.046875 -47.796875 L 31.484375 -71.375 L 44.53125 -73.890625 L 56.703125 -10.96875 L 43.703125 -8.453125 Z M 38.1875 -36.96875 "/></g></g></g><g fill="#f6e7d8" fill-opacity="1"><g transform="translate(1318.967367, 641.840907)"><g/></g></g><g fill="#f6e7d8" fill-opacity="1"><g transform="translate(1374.25163, 636.587414)"><g><path d="M 46.65625 -43.15625 C 46.476562 -43.9375 46.296875 -44.597656 46.109375 -45.140625 C 45.921875 -45.691406 45.601562 -46.476562 45.15625 -47.5 C 44.71875 -48.519531 44.164062 -49.390625 43.5 -50.109375 C 42.84375 -50.835938 42.035156 -51.5625 41.078125 -52.28125 C 40.117188 -53.007812 38.925781 -53.554688 37.5 -53.921875 C 36.082031 -54.285156 34.5 -54.457031 32.75 -54.4375 C 27.570312 -54.34375 23.539062 -52.273438 20.65625 -48.234375 C 17.78125 -44.191406 16.398438 -38.640625 16.515625 -31.578125 C 16.628906 -24.578125 18.140625 -19.140625 21.046875 -15.265625 C 23.960938 -11.390625 27.960938 -9.492188 33.046875 -9.578125 C 37.140625 -9.648438 40.40625 -10.828125 42.84375 -13.109375 C 45.28125 -15.398438 46.664062 -18.597656 47 -22.703125 L 59.875 -22.921875 C 59.5625 -15.585938 56.96875 -9.722656 52.09375 -5.328125 C 47.226562 -0.941406 40.828125 1.316406 32.890625 1.453125 C 23.972656 1.597656 16.859375 -1.285156 11.546875 -7.203125 C 6.242188 -13.117188 3.507812 -21.21875 3.34375 -31.5 C 3.164062 -41.882812 5.65625 -50.132812 10.8125 -56.25 C 15.96875 -62.375 23.070312 -65.507812 32.125 -65.65625 C 39.707031 -65.78125 45.953125 -63.863281 50.859375 -59.90625 C 55.773438 -55.957031 58.566406 -50.445312 59.234375 -43.375 Z M 46.65625 -43.15625 "/></g></g></g><g fill="#f6e7d8" fill-opacity="1"><g transform="translate(1468.197237, 636.69619)"><g><path d="M 45.03125 -8.75 L 21.109375 -10.96875 L 15.65625 1.453125 L 2.28125 0.21875 L 30.921875 -61.484375 L 45.359375 -60.140625 L 61.484375 5.71875 L 48.078125 4.46875 Z M 42.46875 -20.078125 L 36.515625 -45.796875 L 25.828125 -21.609375 Z M 42.46875 -20.078125 "/></g></g></g><g fill="#f6e7d8" fill-opacity="1"><g transform="translate(1561.570165, 647.053318)"><g><path d="M 44.703125 -2.109375 C 45.046875 -3.796875 45.328125 -5.117188 45.546875 -6.078125 C 45.773438 -7.046875 45.96875 -7.914062 46.125 -8.6875 C 46.664062 -11.3125 46.425781 -13.347656 45.40625 -14.796875 C 44.394531 -16.253906 42.503906 -17.265625 39.734375 -17.828125 L 24.921875 -20.859375 L 19.8125 4.0625 L 6.890625 1.40625 L 19.75 -61.390625 L 53.359375 -54.5 C 55.941406 -53.96875 58.175781 -53.125 60.0625 -51.96875 C 61.957031 -50.820312 63.394531 -49.539062 64.375 -48.125 C 65.351562 -46.71875 66.082031 -45.160156 66.5625 -43.453125 C 67.039062 -41.742188 67.273438 -40.132812 67.265625 -38.625 C 67.253906 -37.113281 67.09375 -35.59375 66.78125 -34.0625 C 65.21875 -26.4375 60.632812 -21.992188 53.03125 -20.734375 C 54.070312 -19.992188 54.878906 -19.414062 55.453125 -19 C 56.035156 -18.582031 56.625 -18.023438 57.21875 -17.328125 C 57.8125 -16.640625 58.226562 -16.082031 58.46875 -15.65625 C 58.71875 -15.226562 58.925781 -14.492188 59.09375 -13.453125 C 59.257812 -12.421875 59.320312 -11.519531 59.28125 -10.75 C 59.238281 -9.976562 59.117188 -8.75 58.921875 -7.0625 C 58.722656 -5.375 58.488281 -3.785156 58.21875 -2.296875 C 57.945312 -0.816406 57.578125 1.257812 57.109375 3.9375 C 56.828125 5.300781 56.804688 6.394531 57.046875 7.21875 C 57.296875 8.050781 57.875 8.859375 58.78125 9.640625 L 58.3125 11.9375 L 44.4375 9.09375 C 43.945312 7.46875 43.710938 5.929688 43.734375 4.484375 C 43.765625 3.046875 44.085938 0.847656 44.703125 -2.109375 Z M 53.53125 -34.828125 C 53.875 -36.515625 53.953125 -37.953125 53.765625 -39.140625 C 53.578125 -40.335938 53.09375 -41.296875 52.3125 -42.015625 C 51.53125 -42.742188 50.660156 -43.300781 49.703125 -43.6875 C 48.753906 -44.082031 47.515625 -44.4375 45.984375 -44.75 L 30.453125 -47.921875 L 27.109375 -31.578125 L 42.640625 -28.40625 C 44.140625 -28.09375 45.410156 -27.925781 46.453125 -27.90625 C 47.503906 -27.894531 48.523438 -28.078125 49.515625 -28.453125 C 50.515625 -28.835938 51.34375 -29.554688 52 -30.609375 C 52.664062 -31.671875 53.175781 -33.078125 53.53125 -34.828125 Z M 53.53125 -34.828125 "/></g></g></g><g fill="#f6e7d8" fill-opacity="1"><g transform="translate(1653.256061, 667.535023)"><g><path d="M 44.65625 2.78125 C 45.1875 1.132812 45.613281 -0.148438 45.9375 -1.078125 C 46.269531 -2.015625 46.554688 -2.851562 46.796875 -3.59375 C 47.617188 -6.144531 47.601562 -8.195312 46.75 -9.75 C 45.90625 -11.3125 44.132812 -12.523438 41.4375 -13.390625 L 27.046875 -18.03125 L 19.25 6.1875 L 6.6875 2.15625 L 26.328125 -58.859375 L 59 -48.34375 C 61.507812 -47.539062 63.640625 -46.460938 65.390625 -45.109375 C 67.140625 -43.765625 68.421875 -42.335938 69.234375 -40.828125 C 70.054688 -39.316406 70.609375 -37.6875 70.890625 -35.9375 C 71.179688 -34.1875 71.238281 -32.5625 71.0625 -31.0625 C 70.894531 -29.5625 70.570312 -28.066406 70.09375 -26.578125 C 67.707031 -19.171875 62.671875 -15.253906 54.984375 -14.828125 C 55.941406 -13.972656 56.679688 -13.304688 57.203125 -12.828125 C 57.734375 -12.347656 58.253906 -11.734375 58.765625 -10.984375 C 59.285156 -10.234375 59.640625 -9.628906 59.828125 -9.171875 C 60.023438 -8.722656 60.148438 -7.972656 60.203125 -6.921875 C 60.253906 -5.878906 60.21875 -4.976562 60.09375 -4.21875 C 59.96875 -3.457031 59.71875 -2.25 59.34375 -0.59375 C 58.96875 1.0625 58.5625 2.613281 58.125 4.0625 C 57.695312 5.507812 57.097656 7.53125 56.328125 10.125 C 55.898438 11.457031 55.765625 12.550781 55.921875 13.40625 C 56.078125 14.257812 56.5625 15.125 57.375 16 L 56.65625 18.234375 L 43.171875 13.890625 C 42.859375 12.210938 42.796875 10.660156 42.984375 9.234375 C 43.171875 7.804688 43.726562 5.65625 44.65625 2.78125 Z M 57 -28.78125 C 57.53125 -30.425781 57.769531 -31.847656 57.71875 -33.046875 C 57.664062 -34.253906 57.285156 -35.253906 56.578125 -36.046875 C 55.878906 -36.847656 55.078125 -37.5 54.171875 -38 C 53.273438 -38.5 52.082031 -38.988281 50.59375 -39.46875 L 35.5 -44.328125 L 30.390625 -28.4375 L 45.484375 -23.578125 C 46.941406 -23.109375 48.1875 -22.804688 49.21875 -22.671875 C 50.25 -22.535156 51.28125 -22.601562 52.3125 -22.875 C 53.34375 -23.15625 54.242188 -23.785156 55.015625 -24.765625 C 55.796875 -25.742188 56.457031 -27.082031 57 -28.78125 Z M 57 -28.78125 "/></g></g></g><g fill="#f6e7d8" fill-opacity="1"><g transform="translate(1742.191821, 698.004093)"><g><path d="M 29.609375 -17.015625 L 22.90625 -1.890625 L 54.59375 12.171875 L 50.109375 22.25 L 6.34375 2.8125 L 32.359375 -55.765625 L 74.703125 -36.953125 L 70.21875 -26.875 L 39.953125 -40.3125 L 34.078125 -27.0625 L 62.046875 -14.640625 L 57.578125 -4.59375 Z M 29.609375 -17.015625 "/></g></g></g><g fill="#f6e7d8" fill-opacity="1"><g transform="translate(1823.08228, 735.56699)"><g><path d="M 43.0625 12.171875 C 43.925781 10.671875 44.617188 9.5 45.140625 8.65625 C 45.660156 7.820312 46.113281 7.066406 46.5 6.390625 C 47.84375 4.066406 48.257812 2.054688 47.75 0.359375 C 47.25 -1.335938 45.773438 -2.894531 43.328125 -4.3125 L 30.234375 -11.890625 L 17.5 10.125 L 6.078125 3.515625 L 38.171875 -51.96875 L 67.875 -34.78125 C 70.15625 -33.457031 72.007812 -31.953125 73.4375 -30.265625 C 74.875 -28.578125 75.828125 -26.90625 76.296875 -25.25 C 76.773438 -23.601562 76.972656 -21.894531 76.890625 -20.125 C 76.804688 -18.351562 76.519531 -16.75 76.03125 -15.3125 C 75.539062 -13.882812 74.90625 -12.5 74.125 -11.15625 C 70.226562 -4.414062 64.476562 -1.648438 56.875 -2.859375 C 57.625 -1.816406 58.207031 -1.003906 58.625 -0.421875 C 59.039062 0.148438 59.414062 0.859375 59.75 1.703125 C 60.09375 2.546875 60.3125 3.207031 60.40625 3.6875 C 60.507812 4.164062 60.476562 4.921875 60.3125 5.953125 C 60.144531 6.992188 59.914062 7.875 59.625 8.59375 C 59.34375 9.3125 58.84375 10.4375 58.125 11.96875 C 57.40625 13.507812 56.679688 14.941406 55.953125 16.265625 C 55.222656 17.585938 54.210938 19.4375 52.921875 21.8125 C 52.222656 23.019531 51.851562 24.054688 51.8125 24.921875 C 51.78125 25.796875 52.070312 26.742188 52.6875 27.765625 L 51.515625 29.796875 L 39.265625 22.71875 C 39.304688 21.007812 39.566406 19.476562 40.046875 18.125 C 40.535156 16.769531 41.539062 14.785156 43.0625 12.171875 Z M 61.8125 -16.0625 C 62.675781 -17.5625 63.207031 -18.90625 63.40625 -20.09375 C 63.601562 -21.28125 63.441406 -22.335938 62.921875 -23.265625 C 62.410156 -24.191406 61.765625 -24.992188 60.984375 -25.671875 C 60.210938 -26.347656 59.15625 -27.078125 57.8125 -27.859375 L 44.078125 -35.796875 L 35.71875 -21.359375 L 49.453125 -13.421875 C 50.773438 -12.648438 51.925781 -12.085938 52.90625 -11.734375 C 53.882812 -11.390625 54.90625 -11.238281 55.96875 -11.28125 C 57.03125 -11.332031 58.046875 -11.753906 59.015625 -12.546875 C 59.984375 -13.347656 60.914062 -14.519531 61.8125 -16.0625 Z M 61.8125 -16.0625 "/></g></g></g><g fill="#f6e7d8" fill-opacity="1"><g transform="translate(1903.559194, 784.162216)"><g><path d="M 32.546875 -10.375 L 22.796875 2.984375 L 50.78125 23.4375 L 44.265625 32.34375 L 5.59375 4.09375 L 43.40625 -47.65625 L 80.8125 -20.328125 L 74.3125 -11.421875 L 47.59375 -30.953125 L 39.03125 -19.25 L 63.734375 -1.1875 L 57.25 7.6875 Z M 32.546875 -10.375 "/></g></g></g><g fill="#f6e7d8" fill-opacity="1"><g transform="translate(653.212414, 1750.260161)"><g><path d="M 889.453125 188.550781 C 894.390625 192.5 899.324219 196.449219 905.25 198.425781 C 910.183594 201.386719 914.132812 202.371094 917.09375 202.371094 C 921.042969 202.371094 924.003906 201.386719 924.003906 199.410156 C 924.003906 197.4375 921.042969 192.5 916.105469 182.628906 C 908.210938 166.835938 902.285156 151.039062 898.339844 134.257812 C 894.390625 117.476562 892.414062 98.71875 893.402344 77.988281 C 893.402344 40.472656 903.273438 -8.882812 922.03125 -69.101562 C 939.800781 -128.335938 968.429688 -208.296875 1007.914062 -309.976562 C 1017.789062 -336.628906 1027.660156 -360.324219 1035.558594 -381.054688 L 1056.289062 -436.335938 C 1066.160156 -465.949219 1073.070312 -489.644531 1077.019531 -507.414062 C 1080.96875 -525.183594 1082.941406 -541.964844 1083.929688 -559.734375 C 1083.929688 -567.632812 1084.914062 -575.527344 1084.914062 -583.425781 C 1084.914062 -601.195312 1082.941406 -616.003906 1079.980469 -627.847656 C 1075.042969 -642.65625 1065.171875 -657.464844 1051.351562 -673.261719 C 1027.660156 -694.976562 1004.953125 -707.8125 982.25 -713.734375 C 959.542969 -717.683594 935.851562 -714.722656 911.171875 -702.875 C 883.53125 -689.054688 848.980469 -658.453125 807.515625 -610.082031 C 765.066406 -561.707031 724.59375 -505.4375 685.105469 -441.273438 C 676.222656 -427.449219 668.324219 -416.59375 662.402344 -406.71875 C 656.476562 -396.847656 652.527344 -392.898438 652.527344 -392.898438 C 652.527344 -392.898438 652.527344 -397.835938 653.515625 -405.734375 C 653.515625 -413.628906 654.503906 -422.515625 656.476562 -433.375 C 660.425781 -461.015625 661.414062 -488.65625 659.4375 -516.296875 C 657.464844 -542.953125 652.527344 -561.707031 646.605469 -573.554688 C 640.683594 -583.425781 629.824219 -594.285156 616.003906 -606.132812 C 602.183594 -617.976562 589.347656 -625.875 577.503906 -629.824219 C 571.578125 -631.796875 566.644531 -631.796875 562.695312 -631.796875 C 557.757812 -630.8125 551.835938 -628.835938 543.9375 -625.875 C 528.144531 -617.976562 504.453125 -597.246094 474.835938 -563.683594 C 444.234375 -528.144531 417.578125 -492.605469 394.875 -456.078125 C 389.9375 -448.183594 385.988281 -442.257812 383.027344 -438.308594 C 379.078125 -433.375 377.105469 -431.398438 377.105469 -431.398438 C 377.105469 -431.398438 378.089844 -438.308594 380.066406 -451.144531 C 382.039062 -462.988281 384.015625 -478.785156 387.964844 -496.554688 C 392.898438 -521.234375 396.847656 -542.953125 398.824219 -561.707031 C 400.796875 -579.476562 401.785156 -604.15625 401.785156 -635.746094 C 401.785156 -671.285156 400.796875 -693.992188 399.808594 -704.851562 C 398.824219 -714.722656 395.859375 -726.566406 390.925781 -738.414062 C 386.976562 -745.324219 383.027344 -753.222656 377.105469 -761.121094 C 371.179688 -769.015625 365.257812 -774.941406 361.308594 -779.875 C 328.734375 -809.492188 298.128906 -824.300781 269.5 -824.300781 C 265.550781 -824.300781 261.605469 -823.3125 258.640625 -823.3125 C 226.066406 -819.363281 188.550781 -795.671875 146.101562 -752.234375 C 100.691406 -706.824219 65.152344 -656.476562 39.488281 -601.195312 C 12.832031 -545.914062 -1.972656 -489.644531 -3.949219 -433.375 C -4.9375 -420.539062 -4.9375 -409.679688 -4.9375 -399.808594 C -4.9375 -382.039062 -3.949219 -369.207031 -1.972656 -360.324219 C 0.988281 -346.5 8.882812 -334.65625 22.707031 -323.796875 C 42.449219 -308 53.308594 -302.078125 57.257812 -306.027344 C 60.21875 -309.976562 62.191406 -330.707031 64.167969 -370.195312 C 64.167969 -398.824219 65.152344 -419.554688 67.128906 -433.375 C 69.101562 -446.207031 72.066406 -462.003906 77.988281 -480.757812 C 84.898438 -504.453125 93.78125 -527.15625 105.628906 -550.847656 C 115.5 -574.542969 128.335938 -596.257812 142.15625 -617.976562 C 167.820312 -657.464844 195.460938 -691.027344 226.066406 -719.65625 C 255.679688 -747.296875 284.308594 -765.066406 310.964844 -770.992188 C 318.859375 -771.976562 323.796875 -771.976562 325.769531 -770.992188 C 326.757812 -769.015625 328.734375 -763.09375 332.679688 -753.222656 C 337.617188 -733.476562 338.605469 -699.914062 334.65625 -652.527344 C 330.707031 -605.144531 323.796875 -553.8125 312.9375 -500.503906 C 297.144531 -427.449219 284.308594 -366.246094 273.449219 -316.886719 C 261.605469 -267.527344 249.757812 -223.105469 238.898438 -184.605469 C 231.988281 -158.9375 227.050781 -141.167969 225.078125 -129.320312 C 223.105469 -117.476562 222.117188 -109.578125 224.089844 -107.601562 C 227.050781 -102.667969 235.9375 -94.769531 251.730469 -84.898438 C 267.527344 -73.050781 276.410156 -68.117188 280.359375 -68.117188 C 282.335938 -68.117188 284.308594 -71.078125 288.257812 -78.976562 C 292.207031 -84.898438 296.15625 -93.78125 300.105469 -103.65625 C 310.964844 -132.28125 324.785156 -162.886719 341.566406 -196.449219 C 357.359375 -228.039062 375.128906 -260.617188 393.886719 -294.179688 C 427.449219 -355.386719 462.988281 -410.667969 498.527344 -462.003906 C 534.066406 -512.347656 561.707031 -544.925781 583.425781 -559.734375 C 587.375 -562.695312 591.324219 -565.65625 594.285156 -567.632812 L 591.324219 -514.324219 C 589.347656 -478.785156 583.425781 -437.324219 575.527344 -387.964844 C 566.644531 -337.617188 554.796875 -283.320312 540.976562 -225.078125 C 532.09375 -189.539062 526.167969 -164.859375 524.195312 -150.050781 C 521.234375 -134.257812 521.234375 -125.371094 523.207031 -122.410156 C 526.167969 -117.476562 535.054688 -109.578125 550.847656 -98.71875 C 566.644531 -87.859375 576.515625 -82.921875 580.464844 -82.921875 C 581.453125 -82.921875 587.375 -91.808594 598.234375 -110.566406 C 608.105469 -129.320312 619.953125 -152.027344 633.773438 -178.679688 C 671.285156 -255.679688 704.851562 -317.875 734.464844 -366.246094 C 762.105469 -413.628906 794.683594 -462.003906 831.210938 -511.363281 C 862.800781 -553.8125 894.390625 -588.363281 924.992188 -616.003906 C 954.609375 -641.671875 980.273438 -657.464844 1001.003906 -661.414062 L 1018.773438 -664.375 C 1017.789062 -640.683594 1016.800781 -622.914062 1016.800781 -611.066406 C 1014.824219 -589.347656 1012.851562 -569.605469 1009.890625 -552.824219 C 1005.941406 -535.054688 998.042969 -508.398438 985.210938 -471.875 L 964.480469 -416.59375 C 956.582031 -394.875 946.710938 -370.195312 935.851562 -341.566406 C 919.070312 -299.117188 905.25 -261.605469 893.402344 -230.015625 C 881.554688 -198.425781 871.683594 -170.78125 863.785156 -147.089844 C 847.992188 -101.679688 838.121094 -67.128906 834.171875 -41.460938 C 829.234375 -15.796875 827.261719 10.859375 827.261719 37.511719 C 827.261719 63.179688 828.246094 79.960938 830.222656 89.832031 C 831.210938 99.707031 835.160156 110.566406 841.082031 124.386719 C 847.992188 142.15625 854.902344 154.988281 860.824219 161.898438 C 865.761719 169.796875 875.632812 178.679688 889.453125 188.550781 Z M 889.453125 188.550781 "/></g></g></g><g fill="#f6e7d8" fill-opacity="1"><g transform="translate(1683.82057, 1750.260161)"><g><path d="M 153.011719 -0.988281 C 158.9375 0 166.835938 0 174.730469 0 C 183.617188 0 193.488281 0 204.347656 -1.972656 C 222.117188 -3.949219 238.898438 -7.898438 253.707031 -13.820312 C 281.347656 -24.679688 311.949219 -44.421875 343.539062 -72.066406 C 375.128906 -99.707031 402.769531 -130.308594 426.464844 -164.859375 C 438.308594 -181.640625 450.15625 -203.359375 462.003906 -231 C 473.847656 -257.65625 479.773438 -275.425781 479.773438 -285.296875 C 479.773438 -291.21875 470.886719 -300.105469 455.09375 -313.925781 C 439.296875 -327.746094 428.4375 -333.667969 422.515625 -332.679688 C 420.539062 -332.679688 417.578125 -329.71875 414.617188 -323.796875 C 410.667969 -317.875 407.707031 -309.976562 404.746094 -302.078125 C 394.875 -276.410156 384.015625 -252.71875 370.195312 -229.027344 C 355.386719 -205.335938 339.589844 -183.617188 321.820312 -163.871094 C 288.257812 -126.359375 252.71875 -96.742188 214.21875 -76.011719 C 174.730469 -54.296875 138.207031 -45.410156 104.640625 -51.332031 C 94.769531 -52.320312 88.847656 -54.296875 85.886719 -57.257812 C 82.921875 -59.230469 78.976562 -66.140625 75.027344 -77 C 69.101562 -92.796875 66.140625 -114.511719 67.128906 -144.128906 C 67.128906 -172.757812 71.078125 -201.386719 77.988281 -229.027344 C 84.898438 -257.65625 93.78125 -287.269531 105.628906 -317.875 C 117.476562 -347.488281 130.308594 -378.089844 145.117188 -407.707031 C 171.769531 -462.988281 201.386719 -512.347656 234.949219 -556.773438 C 267.527344 -601.195312 298.128906 -631.796875 327.746094 -648.582031 C 333.667969 -652.527344 339.589844 -655.492188 345.515625 -658.453125 C 351.4375 -660.425781 354.398438 -662.402344 356.375 -662.402344 C 358.347656 -662.402344 358.347656 -653.515625 356.375 -635.746094 C 353.410156 -616.992188 349.464844 -598.234375 343.539062 -580.464844 C 339.589844 -566.644531 336.628906 -556.773438 336.628906 -551.835938 C 335.644531 -545.914062 336.628906 -541.964844 339.589844 -539.988281 C 343.539062 -534.066406 352.425781 -527.15625 367.234375 -517.285156 C 382.039062 -507.414062 390.925781 -503.464844 394.875 -503.464844 C 398.824219 -503.464844 403.757812 -515.308594 411.65625 -539.988281 C 419.554688 -563.683594 423.503906 -584.414062 425.476562 -602.183594 C 426.464844 -621.925781 423.503906 -639.695312 415.605469 -653.515625 C 407.707031 -667.335938 393.886719 -681.15625 374.144531 -694.976562 C 354.398438 -707.8125 337.617188 -714.722656 322.808594 -715.707031 C 320.835938 -715.707031 319.847656 -716.695312 317.875 -716.695312 C 304.054688 -715.707031 288.257812 -710.773438 270.488281 -702.875 C 239.886719 -687.082031 207.308594 -656.476562 172.757812 -610.082031 C 137.21875 -562.695312 104.640625 -510.375 77 -453.117188 C 61.207031 -421.527344 48.371094 -389.9375 36.527344 -358.347656 C 24.679688 -324.785156 14.808594 -293.195312 8.882812 -263.578125 C 2.960938 -241.859375 0 -216.195312 0 -187.566406 L 0 -175.71875 C 0 -153.011719 0.988281 -135.246094 4.9375 -123.398438 C 12.832031 -94.769531 32.578125 -68.117188 62.191406 -44.421875 C 91.808594 -18.757812 122.410156 -4.9375 153.011719 -0.988281 Z M 153.011719 -0.988281 "/></g></g></g><g fill="#f6e7d8" fill-opacity="1"><g transform="translate(749.698953, 1798.042564)"><g><path d="M 25.890625 10.515625 L 5.9375 17.359375 L 2 5.84375 L 58 -13.34375 L 66.46875 11.34375 C 68.46875 17.195312 68.503906 22.1875 66.578125 26.3125 C 64.660156 30.4375 60.882812 33.46875 55.25 35.40625 C 49.5625 37.351562 44.503906 37.363281 40.078125 35.4375 C 35.660156 33.519531 32.578125 30.003906 30.828125 24.890625 Z M 35.546875 7.21875 L 39.234375 17.96875 C 40.285156 21.039062 41.734375 23.070312 43.578125 24.0625 C 45.429688 25.050781 47.78125 25.0625 50.625 24.09375 C 53.53125 23.09375 55.414062 21.628906 56.28125 19.703125 C 57.144531 17.785156 57.050781 15.289062 56 12.21875 L 52.3125 1.46875 Z M 35.546875 7.21875 "/></g></g></g><g fill="#f6e7d8" fill-opacity="1"><g transform="translate(780.155786, 1880.216142)"><g><path d="M 61.421875 -9.015625 L 17.3125 12.359375 L 29.65625 37.84375 L 20.484375 42.28125 L 2.828125 5.84375 L 56.109375 -19.96875 Z M 61.421875 -9.015625 "/></g></g></g><g fill="#f6e7d8" fill-opacity="1"><g transform="translate(818.042607, 1954.267872)"><g><path d="M 32.109375 27.640625 L 20.046875 9.03125 L 7.890625 12.171875 L 1.15625 1.78125 L 62.28125 -12.765625 L 69.5625 -1.53125 L 31.03125 47.84375 L 24.265625 37.421875 Z M 38.84375 19.296875 L 54.078125 0.296875 L 30.453125 6.359375 Z M 38.84375 19.296875 "/></g></g></g><g fill="#f6e7d8" fill-opacity="1"><g transform="translate(870.120811, 2030.524136)"><g><path d="M 26.890625 31.53125 L 42.578125 -13.078125 L 11.46875 13.453125 L 3.5625 4.1875 L 48.609375 -34.234375 L 56.75 -24.703125 L 41.296875 19.25 L 71.9375 -6.890625 L 79.859375 2.40625 L 34.8125 40.828125 Z M 26.890625 31.53125 "/></g></g></g><g fill="#f6e7d8" fill-opacity="1"><g transform="translate(931.702761, 2099.235981)"><g><path d="M 30.921875 -6.34375 L 20.640625 4.96875 L 44.328125 26.484375 L 37.484375 34.03125 L 4.75 4.3125 L 44.546875 -39.515625 L 76.21875 -10.765625 L 69.375 -3.234375 L 46.75 -23.78125 L 37.75 -13.859375 L 58.671875 5.140625 L 51.84375 12.65625 Z M 30.921875 -6.34375 "/></g></g></g><g fill="#f6e7d8" fill-opacity="1"><g transform="translate(998.024658, 2156.40406)"><g><path d="M 15.59375 13.390625 C 14.175781 12.378906 12.894531 11.269531 11.75 10.0625 C 10.613281 8.863281 9.601562 7.441406 8.71875 5.796875 C 7.832031 4.148438 7.269531 2.4375 7.03125 0.65625 C 6.789062 -1.113281 6.972656 -3.09375 7.578125 -5.28125 C 8.179688 -7.46875 9.285156 -9.6875 10.890625 -11.9375 L 14.296875 -16.71875 L 24.203125 -9.65625 L 20.90625 -5.03125 C 19.332031 -2.820312 18.613281 -0.929688 18.75 0.640625 C 18.882812 2.210938 19.894531 3.671875 21.78125 5.015625 C 23.507812 6.253906 25.179688 6.726562 26.796875 6.4375 C 28.421875 6.15625 29.878906 5.101562 31.171875 3.28125 L 56.59375 -32.359375 L 66.5 -25.296875 L 41.078125 10.34375 C 37.867188 14.851562 34.046875 17.363281 29.609375 17.875 C 25.179688 18.382812 20.507812 16.890625 15.59375 13.390625 Z M 15.59375 13.390625 "/></g></g></g><g fill="#f6e7d8" fill-opacity="1"><g transform="translate(1062.996203, 2200.736654)"><g><path d="M 41.40625 8.984375 L 21.921875 -1.609375 L 12.75 6.9375 L 1.859375 1.015625 L 48.65625 -40.921875 L 60.40625 -34.515625 L 50.09375 27.265625 L 39.171875 21.3125 Z M 43.34375 -1.5625 L 47.671875 -25.53125 L 29.796875 -8.9375 Z M 43.34375 -1.5625 "/></g></g></g><g fill="#f6e7d8" fill-opacity="1"><g transform="translate(1145.136576, 2242.927957)"><g><path d="M 38.671875 14.890625 L 31.171875 -31.8125 L 16.484375 6.34375 L 5.125 1.96875 L 26.40625 -53.28125 L 38.109375 -48.765625 L 45.484375 -2.78125 L 59.953125 -40.359375 L 71.359375 -35.96875 L 50.078125 19.28125 Z M 38.671875 14.890625 "/></g></g></g><g fill="#f6e7d8" fill-opacity="1"><g transform="translate(1232.079362, 2274.042722)"><g><path d="M 6.09375 1.46875 L 19.984375 -56.078125 L 42.46875 -50.65625 C 46.84375 -49.59375 50.34375 -48.1875 52.96875 -46.4375 C 55.601562 -44.695312 57.613281 -42.4375 59 -39.65625 C 62.320312 -32.914062 62.882812 -24.988281 60.6875 -15.875 C 58.457031 -6.632812 54.34375 0.160156 48.34375 4.515625 C 45.832031 6.378906 43.003906 7.503906 39.859375 7.890625 C 36.710938 8.285156 32.953125 7.953125 28.578125 6.890625 Z M 20.265625 -5.59375 L 30.96875 -3.015625 C 39.820312 -0.878906 45.757812 -6.078125 48.78125 -18.609375 C 51.832031 -31.234375 48.929688 -38.613281 40.078125 -40.75 L 29.375 -43.328125 Z M 20.265625 -5.59375 "/></g></g></g><g fill="#f6e7d8" fill-opacity="1"><g transform="translate(1322.401997, 2293.658231)"><g><path d="M 8.03125 -12.375 C 6.207031 -17.269531 5.601562 -22.691406 6.21875 -28.640625 C 6.832031 -34.585938 8.53125 -39.773438 11.3125 -44.203125 C 14.09375 -48.628906 17.769531 -51.941406 22.34375 -54.140625 C 26.914062 -56.347656 32.015625 -57.164062 37.640625 -56.59375 C 46.160156 -55.707031 52.734375 -52.125 57.359375 -45.84375 C 61.992188 -39.570312 63.828125 -31.753906 62.859375 -22.390625 C 62.429688 -18.171875 61.367188 -14.285156 59.671875 -10.734375 C 57.972656 -7.179688 55.78125 -4.15625 53.09375 -1.65625 C 50.414062 0.84375 47.203125 2.703125 43.453125 3.921875 C 39.710938 5.140625 35.675781 5.523438 31.34375 5.078125 C 25.6875 4.492188 20.84375 2.660156 16.8125 -0.421875 C 12.78125 -3.503906 9.851562 -7.488281 8.03125 -12.375 Z M 36.625 -46.265625 C 31.75 -46.765625 27.640625 -45.289062 24.296875 -41.84375 C 20.953125 -38.394531 18.960938 -33.578125 18.328125 -27.390625 C 17.691406 -21.234375 18.660156 -16.128906 21.234375 -12.078125 C 23.804688 -8.035156 27.53125 -5.765625 32.40625 -5.265625 C 37.25 -4.765625 41.363281 -6.210938 44.75 -9.609375 C 48.132812 -13.015625 50.140625 -17.707031 50.765625 -23.6875 C 51.421875 -30.082031 50.472656 -35.316406 47.921875 -39.390625 C 45.378906 -43.460938 41.613281 -45.753906 36.625 -46.265625 Z M 36.625 -46.265625 "/></g></g></g><g fill="#f6e7d8" fill-opacity="1"><g transform="translate(1418.474332, 2300.649772)"><g/></g></g><g fill="#f6e7d8" fill-opacity="1"><g transform="translate(1474.142463, 2299.478117)"><g><path d="M 44.578125 -46.125 L 33.28125 -44.921875 C 32.78125 -47.910156 31.398438 -50.078125 29.140625 -51.421875 C 26.890625 -52.773438 23.832031 -53.242188 19.96875 -52.828125 C 16.851562 -52.492188 14.445312 -51.570312 12.75 -50.0625 C 11.050781 -48.550781 10.320312 -46.675781 10.5625 -44.4375 C 10.789062 -42.320312 11.738281 -40.820312 13.40625 -39.9375 C 15.070312 -39.050781 18.117188 -38.40625 22.546875 -38 L 31.9375 -37.203125 C 37.488281 -36.734375 41.640625 -35.34375 44.390625 -33.03125 C 47.148438 -30.726562 48.773438 -27.28125 49.265625 -22.6875 C 49.910156 -16.707031 48.28125 -11.804688 44.375 -7.984375 C 40.476562 -4.171875 34.734375 -1.859375 27.140625 -1.046875 C 19.640625 -0.242188 13.617188 -1.28125 9.078125 -4.15625 C 4.535156 -7.039062 1.75 -11.609375 0.71875 -17.859375 L 12.46875 -19.109375 C 13.019531 -15.984375 14.507812 -13.707031 16.9375 -12.28125 C 19.363281 -10.851562 22.644531 -10.359375 26.78125 -10.796875 C 30.445312 -11.191406 33.269531 -12.195312 35.25 -13.8125 C 37.226562 -15.425781 38.085938 -17.457031 37.828125 -19.90625 C 37.566406 -22.300781 36.53125 -24.050781 34.71875 -25.15625 C 32.90625 -26.269531 29.941406 -26.992188 25.828125 -27.328125 L 17.421875 -28.078125 C 11.335938 -28.578125 6.90625 -29.898438 4.125 -32.046875 C 1.34375 -34.191406 -0.285156 -37.550781 -0.765625 -42.125 C -1.378906 -47.84375 0.0820312 -52.488281 3.625 -56.0625 C 7.164062 -59.644531 12.46875 -61.8125 19.53125 -62.5625 C 20.925781 -62.71875 22.3125 -62.800781 23.6875 -62.8125 C 25.0625 -62.820312 26.550781 -62.734375 28.15625 -62.546875 C 29.769531 -62.359375 31.28125 -62.039062 32.6875 -61.59375 C 34.09375 -61.15625 35.484375 -60.507812 36.859375 -59.65625 C 38.234375 -58.800781 39.4375 -57.78125 40.46875 -56.59375 C 41.507812 -55.414062 42.394531 -53.925781 43.125 -52.125 C 43.863281 -50.332031 44.347656 -48.332031 44.578125 -46.125 Z M 44.578125 -46.125 "/></g></g></g><g fill="#f6e7d8" fill-opacity="1"><g transform="translate(1561.127734, 2288.078172)"><g><path d="M 12.296875 -29.0625 L 15.796875 -14.1875 L 46.953125 -21.5 L 49.28125 -11.578125 L 6.234375 -1.46875 L -7.3125 -59.109375 L 34.34375 -68.890625 L 36.6875 -58.96875 L 6.921875 -51.984375 L 9.984375 -38.953125 L 37.5 -45.40625 L 39.8125 -35.515625 Z M 12.296875 -29.0625 "/></g></g></g><g fill="#f6e7d8" fill-opacity="1"><g transform="translate(1646.130876, 2266.05281)"><g><path d="M 28.421875 -8.671875 C 26.398438 -7.910156 24.367188 -7.34375 22.328125 -6.96875 C 20.285156 -6.59375 18.09375 -6.492188 15.75 -6.671875 C 13.414062 -6.847656 11.25 -7.367188 9.25 -8.234375 C 7.257812 -9.097656 5.347656 -10.523438 3.515625 -12.515625 C 1.691406 -14.515625 0.222656 -17.007812 -0.890625 -20 L -14.984375 -57.609375 L -3.59375 -61.875 L 10.5 -24.265625 C 11.75 -20.898438 13.539062 -18.742188 15.875 -17.796875 C 18.207031 -16.859375 21.175781 -17.066406 24.78125 -18.421875 C 28.320312 -19.742188 30.65625 -21.53125 31.78125 -23.78125 C 32.914062 -26.039062 32.863281 -28.835938 31.625 -32.171875 L 17.53125 -69.78125 L 28.921875 -74.046875 L 43.015625 -36.4375 C 44.128906 -33.445312 44.65625 -30.597656 44.59375 -27.890625 C 44.539062 -25.191406 44.046875 -22.863281 43.109375 -20.90625 C 42.179688 -18.945312 40.894531 -17.128906 39.25 -15.453125 C 37.601562 -13.785156 35.882812 -12.425781 34.09375 -11.375 C 32.3125 -10.320312 30.421875 -9.421875 28.421875 -8.671875 Z M 28.421875 -8.671875 "/></g></g></g><g fill="#f6e7d8" fill-opacity="1"><g transform="translate(1731.038283, 2231.404628)"><g/></g></g><g fill="#f6e7d8" fill-opacity="1"><g transform="translate(1780.351609, 2205.720583)"><g><path d="M 1.84375 -31.21875 L 15.390625 -9.65625 L 5.078125 -3.1875 L -26.40625 -53.328125 L 8.796875 -75.4375 L 14.21875 -66.8125 L -10.671875 -51.171875 L -3.546875 -39.828125 L 18.359375 -53.59375 L 23.75 -44.984375 Z M 1.84375 -31.21875 "/></g></g></g><g fill="#f6e7d8" fill-opacity="1"><g transform="translate(1849.824916, 2159.967542)"><g><path d="M 24.15625 -17.34375 C 22.476562 -15.976562 20.734375 -14.785156 18.921875 -13.765625 C 17.109375 -12.753906 15.0625 -11.953125 12.78125 -11.359375 C 10.5 -10.773438 8.273438 -10.570312 6.109375 -10.75 C 3.953125 -10.9375 1.691406 -11.679688 -0.671875 -12.984375 C -3.046875 -14.285156 -5.242188 -16.171875 -7.265625 -18.640625 L -32.671875 -49.75 L -23.25 -57.453125 L 2.15625 -26.34375 C 4.425781 -23.570312 6.8125 -22.109375 9.3125 -21.953125 C 11.820312 -21.804688 14.570312 -22.953125 17.5625 -25.390625 C 20.488281 -27.785156 22.125 -30.234375 22.46875 -32.734375 C 22.820312 -35.234375 21.875 -37.859375 19.625 -40.609375 L -5.78125 -71.71875 L 3.640625 -79.40625 L 29.046875 -48.296875 C 31.066406 -45.828125 32.476562 -43.300781 33.28125 -40.71875 C 34.09375 -38.144531 34.367188 -35.78125 34.109375 -33.625 C 33.859375 -31.476562 33.222656 -29.347656 32.203125 -27.234375 C 31.191406 -25.128906 30.007812 -23.289062 28.65625 -21.71875 C 27.300781 -20.15625 25.800781 -18.695312 24.15625 -17.34375 Z M 24.15625 -17.34375 "/></g></g></g><g fill="#f6e7d8" fill-opacity="1"><g transform="translate(1919.68595, 2099.828473)"><g><path d="M -13.875 -56.484375 L 21.59375 -22.65625 L 13.125 -13.765625 L -22.34375 -47.59375 L -34.6875 -34.640625 L -42.0625 -41.671875 L -9.359375 -75.96875 L -1.984375 -68.9375 Z M -13.875 -56.484375 "/></g></g></g><g fill="#f6e7d8" fill-opacity="1"><g transform="translate(1975.773392, 2038.398245)"><g><path d="M 19.140625 -22.75 C 17.847656 -21.007812 16.445312 -19.425781 14.9375 -18 C 13.4375 -16.570312 11.65625 -15.289062 9.59375 -14.15625 C 7.53125 -13.03125 5.425781 -12.285156 3.28125 -11.921875 C 1.132812 -11.566406 -1.242188 -11.726562 -3.859375 -12.40625 C -6.472656 -13.09375 -9.0625 -14.382812 -11.625 -16.28125 L -43.90625 -40.1875 L -36.65625 -49.984375 L -4.375 -26.078125 C -1.488281 -23.941406 1.179688 -23.109375 3.640625 -23.578125 C 6.109375 -24.054688 8.488281 -25.84375 10.78125 -28.9375 C 13.03125 -31.976562 14.015625 -34.75 13.734375 -37.25 C 13.453125 -39.757812 11.882812 -42.070312 9.03125 -44.1875 L -23.25 -68.09375 L -16 -77.875 L 16.28125 -53.96875 C 18.84375 -52.070312 20.832031 -49.972656 22.25 -47.671875 C 23.664062 -45.367188 24.515625 -43.140625 24.796875 -40.984375 C 25.078125 -38.835938 24.984375 -36.617188 24.515625 -34.328125 C 24.046875 -32.035156 23.347656 -29.960938 22.421875 -28.109375 C 21.503906 -26.253906 20.410156 -24.46875 19.140625 -22.75 Z M 19.140625 -22.75 "/></g></g></g><g fill="#f6e7d8" fill-opacity="1"><g transform="translate(2028.932755, 1962.891519)"><g><path d="M 10.515625 -39.9375 C 9.117188 -40.71875 8.023438 -41.34375 7.234375 -41.8125 C 6.453125 -42.289062 5.75 -42.703125 5.125 -43.046875 C 2.96875 -44.242188 1.109375 -44.59375 -0.453125 -44.09375 C -2.015625 -43.601562 -3.429688 -42.21875 -4.703125 -39.9375 L -11.46875 -27.71875 L 9.0625 -16.328125 L 3.15625 -5.6875 L -48.609375 -34.40625 L -33.234375 -62.109375 C -32.054688 -64.242188 -30.695312 -65.984375 -29.15625 -67.328125 C -27.625 -68.671875 -26.097656 -69.570312 -24.578125 -70.03125 C -23.066406 -70.5 -21.488281 -70.707031 -19.84375 -70.65625 C -18.207031 -70.613281 -16.722656 -70.378906 -15.390625 -69.953125 C -14.066406 -69.523438 -12.773438 -68.960938 -11.515625 -68.265625 C -5.234375 -64.785156 -2.585938 -59.515625 -3.578125 -52.453125 C -2.628906 -53.171875 -1.890625 -53.726562 -1.359375 -54.125 C -0.835938 -54.519531 -0.195312 -54.878906 0.5625 -55.203125 C 1.332031 -55.535156 1.941406 -55.75 2.390625 -55.84375 C 2.835938 -55.945312 3.535156 -55.925781 4.484375 -55.78125 C 5.441406 -55.644531 6.257812 -55.453125 6.9375 -55.203125 C 7.613281 -54.960938 8.664062 -54.519531 10.09375 -53.875 C 11.519531 -53.226562 12.851562 -52.582031 14.09375 -51.9375 C 15.332031 -51.289062 17.0625 -50.382812 19.28125 -49.21875 C 20.40625 -48.59375 21.367188 -48.269531 22.171875 -48.25 C 22.972656 -48.238281 23.832031 -48.519531 24.75 -49.09375 L 26.65625 -48.046875 L 20.328125 -36.625 C 18.753906 -36.644531 17.332031 -36.863281 16.0625 -37.28125 C 14.800781 -37.695312 12.953125 -38.582031 10.515625 -39.9375 Z M -15.875 -56.8125 C -17.269531 -57.582031 -18.515625 -58.046875 -19.609375 -58.203125 C -20.703125 -58.359375 -21.671875 -58.191406 -22.515625 -57.703125 C -23.367188 -57.222656 -24.101562 -56.617188 -24.71875 -55.890625 C -25.332031 -55.171875 -25.992188 -54.175781 -26.703125 -52.90625 L -33.796875 -40.109375 L -20.3125 -32.625 L -13.21875 -45.421875 C -12.53125 -46.660156 -12.03125 -47.738281 -11.71875 -48.65625 C -11.414062 -49.570312 -11.289062 -50.519531 -11.34375 -51.5 C -11.40625 -52.476562 -11.8125 -53.40625 -12.5625 -54.28125 C -13.320312 -55.15625 -14.425781 -56 -15.875 -56.8125 Z M -15.875 -56.8125 "/></g></g></g><g fill="#f6e7d8" fill-opacity="1"><g transform="translate(2071.897955, 1881.047286)"><g><path d="M -9.796875 -11.03125 C -14.992188 -10.582031 -20.375 -11.445312 -25.9375 -13.625 C -31.507812 -15.800781 -36.0625 -18.816406 -39.59375 -22.671875 C -43.125 -26.535156 -45.335938 -30.960938 -46.234375 -35.953125 C -47.140625 -40.953125 -46.5625 -46.085938 -44.5 -51.359375 C -41.382812 -59.335938 -36.1875 -64.71875 -28.90625 -67.5 C -21.625 -70.289062 -13.601562 -69.976562 -4.84375 -66.5625 C -0.894531 -65.019531 2.5625 -62.957031 5.53125 -60.375 C 8.507812 -57.789062 10.847656 -54.875 12.546875 -51.625 C 14.253906 -48.375 15.191406 -44.78125 15.359375 -40.84375 C 15.535156 -36.90625 14.832031 -32.910156 13.25 -28.859375 C 11.175781 -23.554688 8.113281 -19.375 4.0625 -16.3125 C 0.0195312 -13.25 -4.597656 -11.488281 -9.796875 -11.03125 Z M -34.84375 -47.640625 C -36.625 -43.066406 -36.296875 -38.707031 -33.859375 -34.5625 C -31.421875 -30.414062 -27.304688 -27.210938 -21.515625 -24.953125 C -15.753906 -22.703125 -10.578125 -22.273438 -5.984375 -23.671875 C -1.398438 -25.078125 1.78125 -28.066406 3.5625 -32.640625 C 5.332031 -37.171875 5.03125 -41.519531 2.65625 -45.6875 C 0.28125 -49.863281 -3.707031 -53.046875 -9.3125 -55.234375 C -15.300781 -57.566406 -20.597656 -58.050781 -25.203125 -56.6875 C -29.804688 -55.320312 -33.019531 -52.304688 -34.84375 -47.640625 Z M -34.84375 -47.640625 "/></g></g></g></svg>